<?xml version="1.0" encoding="UTF-8" standalone="no"?>
<!DOCTYPE svg PUBLIC "-//W3C//DTD SVG 1.1//EN"
 "http://www.w3.org/Graphics/SVG/1.1/DTD/svg11.dtd">
<!-- Generated by graphviz version 2.43.0 (0)
 -->
<!-- Title: core/altium/models/AltiumPcbComponent.h Pages: 1 -->
<svg width="446pt" height="148pt"
 viewBox="0.00 0.00 446.00 148.00" xmlns="http://www.w3.org/2000/svg" xmlns:xlink="http://www.w3.org/1999/xlink">
<g id="graph0" class="graph" transform="scale(1 1) rotate(0) translate(4 144)">
<title>core/altium/models/AltiumPcbComponent.h</title>
<!-- Node1 -->
<g id="Node000001" class="node">
<title>Node1</title>
<g id="a_Node000001"><a xlink:title=" ">
<polygon fill="#999999" stroke="#666666" points="310.5,-140 176.5,-140 176.5,-110 310.5,-110 310.5,-140"/>
<text text-anchor="start" x="184.5" y="-128" font-family="Helvetica,sans-Serif" font-size="10.00">core/altium/models</text>
<text text-anchor="middle" x="243.5" y="-117" font-family="Helvetica,sans-Serif" font-size="10.00">/AltiumPcbComponent.h</text>
</a>
</g>
</g>
<!-- Node2 -->
<g id="Node000002" class="node">
<title>Node2</title>
<g id="a_Node000002"><a xlink:href="AltiumCommon_8h.html" target="_top" xlink:title=" ">
<polygon fill="white" stroke="#666666" points="151.5,-74 49.5,-74 49.5,-55 151.5,-55 151.5,-74"/>
<text text-anchor="middle" x="100.5" y="-62" font-family="Helvetica,sans-Serif" font-size="10.00">AltiumCommon.h</text>
</a>
</g>
</g>
<!-- Node1&#45;&gt;Node2 -->
<g id="edge1_Node000001_Node000002" class="edge">
<title>Node1&#45;&gt;Node2</title>
<g id="a_edge1_Node000001_Node000002"><a xlink:title=" ">
<path fill="none" stroke="#63b8ff" d="M209.25,-109.99C185.39,-100.23 153.85,-87.33 130.89,-77.93"/>
<polygon fill="#63b8ff" stroke="#63b8ff" points="132.2,-74.69 121.62,-74.14 129.55,-81.17 132.2,-74.69"/>
</a>
</g>
</g>
<!-- Node3 -->
<g id="Node000003" class="node">
<title>Node3</title>
<g id="a_Node000003"><a xlink:title=" ">
<polygon fill="#e0e0e0" stroke="#999999" points="53,-19 0,-19 0,0 53,0 53,-19"/>
<text text-anchor="middle" x="26.5" y="-7" font-family="Helvetica,sans-Serif" font-size="10.00">QString</text>
</a>
</g>
</g>
<!-- Node1&#45;&gt;Node3 -->
<g id="edge8_Node000001_Node000003" class="edge">
<title>Node1&#45;&gt;Node3</title>
<g id="a_edge8_Node000001_Node000003"><a xlink:title=" ">
<path fill="none" stroke="#63b8ff" d="M176.39,-115.2C124.83,-107.07 59.35,-93.32 40.5,-74 29.05,-62.27 26.09,-43.42 25.66,-29.3"/>
<polygon fill="#63b8ff" stroke="#63b8ff" points="29.16,-29.25 25.76,-19.22 22.17,-29.18 29.16,-29.25"/>
</a>
</g>
</g>
<!-- Node5 -->
<g id="Node000005" class="node">
<title>Node5</title>
<g id="a_Node000005"><a xlink:title=" ">
<polygon fill="#e0e0e0" stroke="#999999" points="243,-74 170,-74 170,-55 243,-55 243,-74"/>
<text text-anchor="middle" x="206.5" y="-62" font-family="Helvetica,sans-Serif" font-size="10.00">QByteArray</text>
</a>
</g>
</g>
<!-- Node1&#45;&gt;Node5 -->
<g id="edge4_Node000001_Node000005" class="edge">
<title>Node1&#45;&gt;Node5</title>
<g id="a_edge4_Node000001_Node000005"><a xlink:title=" ">
<path fill="none" stroke="#63b8ff" d="M234.54,-109.84C229.39,-101.69 222.88,-91.4 217.43,-82.78"/>
<polygon fill="#63b8ff" stroke="#63b8ff" points="220.35,-80.85 212.04,-74.27 214.43,-84.59 220.35,-80.85"/>
</a>
</g>
</g>
<!-- Node6 -->
<g id="Node000006" class="node">
<title>Node6</title>
<g id="a_Node000006"><a xlink:title=" ">
<polygon fill="#e0e0e0" stroke="#999999" points="302,-74 261,-74 261,-55 302,-55 302,-74"/>
<text text-anchor="middle" x="281.5" y="-62" font-family="Helvetica,sans-Serif" font-size="10.00">QList</text>
</a>
</g>
</g>
<!-- Node1&#45;&gt;Node6 -->
<g id="edge5_Node000001_Node000006" class="edge">
<title>Node1&#45;&gt;Node6</title>
<g id="a_edge5_Node000001_Node000006"><a xlink:title=" ">
<path fill="none" stroke="#63b8ff" d="M252.7,-109.84C257.99,-101.69 264.68,-91.4 270.28,-82.78"/>
<polygon fill="#63b8ff" stroke="#63b8ff" points="273.29,-84.56 275.81,-74.27 267.42,-80.75 273.29,-84.56"/>
</a>
</g>
</g>
<!-- Node7 -->
<g id="Node000007" class="node">
<title>Node7</title>
<g id="a_Node000007"><a xlink:title=" ">
<polygon fill="#e0e0e0" stroke="#999999" points="365,-74 320,-74 320,-55 365,-55 365,-74"/>
<text text-anchor="middle" x="342.5" y="-62" font-family="Helvetica,sans-Serif" font-size="10.00">QMap</text>
</a>
</g>
</g>
<!-- Node1&#45;&gt;Node7 -->
<g id="edge6_Node000001_Node000007" class="edge">
<title>Node1&#45;&gt;Node7</title>
<g id="a_edge6_Node000001_Node000007"><a xlink:title=" ">
<path fill="none" stroke="#63b8ff" d="M267.21,-109.99C282.85,-100.75 303.24,-88.7 318.86,-79.47"/>
<polygon fill="#63b8ff" stroke="#63b8ff" points="321.05,-82.24 327.88,-74.14 317.49,-76.21 321.05,-82.24"/>
</a>
</g>
</g>
<!-- Node8 -->
<g id="Node000008" class="node">
<title>Node8</title>
<g id="a_Node000008"><a xlink:title=" ">
<polygon fill="#e0e0e0" stroke="#999999" points="438,-74 383,-74 383,-55 438,-55 438,-74"/>
<text text-anchor="middle" x="410.5" y="-62" font-family="Helvetica,sans-Serif" font-size="10.00">QPointF</text>
</a>
</g>
</g>
<!-- Node1&#45;&gt;Node8 -->
<g id="edge7_Node000001_Node000008" class="edge">
<title>Node1&#45;&gt;Node8</title>
<g id="a_edge7_Node000001_Node000008"><a xlink:title=" ">
<path fill="none" stroke="#63b8ff" d="M283.5,-109.99C311.74,-100.1 349.18,-86.98 376.08,-77.56"/>
<polygon fill="#63b8ff" stroke="#63b8ff" points="377.56,-80.75 385.84,-74.14 375.24,-74.14 377.56,-80.75"/>
</a>
</g>
</g>
<!-- Node2&#45;&gt;Node3 -->
<g id="edge2_Node000002_Node000003" class="edge">
<title>Node2&#45;&gt;Node3</title>
<g id="a_edge2_Node000002_Node000003"><a xlink:title=" ">
<path fill="none" stroke="#63b8ff" d="M88.61,-54.98C77.35,-46.92 60.21,-34.65 46.79,-25.03"/>
<polygon fill="#63b8ff" stroke="#63b8ff" points="48.77,-22.15 38.61,-19.17 44.7,-27.84 48.77,-22.15"/>
</a>
</g>
</g>
<!-- Node4 -->
<g id="Node000004" class="node">
<title>Node4</title>
<g id="a_Node000004"><a xlink:title=" ">
<polygon fill="#e0e0e0" stroke="#999999" points="125.5,-19 75.5,-19 75.5,0 125.5,0 125.5,-19"/>
<text text-anchor="middle" x="100.5" y="-7" font-family="Helvetica,sans-Serif" font-size="10.00">cstdint</text>
</a>
</g>
</g>
<!-- Node2&#45;&gt;Node4 -->
<g id="edge3_Node000002_Node000004" class="edge">
<title>Node2&#45;&gt;Node4</title>
<g id="a_edge3_Node000002_Node000004"><a xlink:title=" ">
<path fill="none" stroke="#63b8ff" d="M100.5,-54.75C100.5,-47.8 100.5,-37.85 100.5,-29.13"/>
<polygon fill="#63b8ff" stroke="#63b8ff" points="104,-29.09 100.5,-19.09 97,-29.09 104,-29.09"/>
</a>
</g>
</g>
</g>
</svg>
