<?xml version="1.0" encoding="UTF-8" standalone="no"?>
<!DOCTYPE svg PUBLIC "-//W3C//DTD SVG 1.1//EN"
 "http://www.w3.org/Graphics/SVG/1.1/DTD/svg11.dtd">
<!-- Generated by graphviz version 2.43.0 (0)
 -->
<!-- Title: EasyKiConverter::IFootprintExporter Pages: 1 -->
<svg width="358pt" height="434pt"
 viewBox="0.00 0.00 358.00 434.00" xmlns="http://www.w3.org/2000/svg" xmlns:xlink="http://www.w3.org/1999/xlink">
<g id="graph0" class="graph" transform="scale(1 1) rotate(0) translate(4 430)">
<title>EasyKiConverter::IFootprintExporter</title>
<!-- Node1 -->
<g id="Node000001" class="node">
<title>Node1</title>
<g id="a_Node000001"><a xlink:title="封装导出器通用接口">
<polygon fill="#999999" stroke="transparent" points="241,-426 97,-426 97,-306 241,-306 241,-426"/>
<text text-anchor="start" x="102" y="-414" font-family="Helvetica,sans-Serif" font-size="10.00">EasyKiConverter::IFootprint</text>
<text text-anchor="start" x="148" y="-403" font-family="Helvetica,sans-Serif" font-size="10.00">Exporter</text>
<text text-anchor="start" x="167" y="-388" font-family="Helvetica,sans-Serif" font-size="10.00"> </text>
<text text-anchor="start" x="102.5" y="-373" font-family="Helvetica,sans-Serif" font-size="10.00">+</text>
<text text-anchor="start" x="117" y="-373" font-family="Helvetica,sans-Serif" font-size="10.00">~IFootprintExporter()</text>
<text text-anchor="start" x="102.5" y="-358" font-family="Helvetica,sans-Serif" font-size="10.00">+</text>
<text text-anchor="start" x="117" y="-358" font-family="Helvetica,sans-Serif" font-size="10.00">libraryFileExtension()</text>
<text text-anchor="start" x="102.5" y="-343" font-family="Helvetica,sans-Serif" font-size="10.00">+</text>
<text text-anchor="start" x="117" y="-343" font-family="Helvetica,sans-Serif" font-size="10.00">isDirectoryOutput()</text>
<text text-anchor="start" x="102.5" y="-328" font-family="Helvetica,sans-Serif" font-size="10.00">+</text>
<text text-anchor="start" x="117" y="-328" font-family="Helvetica,sans-Serif" font-size="10.00">exportFootprint()</text>
<text text-anchor="start" x="102.5" y="-313" font-family="Helvetica,sans-Serif" font-size="10.00">+</text>
<text text-anchor="start" x="117" y="-313" font-family="Helvetica,sans-Serif" font-size="10.00">exportFootprintLibrary()</text>
<polygon fill="#666666" stroke="#666666" points="97,-398 97,-398 241,-398 241,-398 97,-398"/>
<polygon fill="#666666" stroke="#666666" points="97,-383 97,-383 241,-383 241,-383 97,-383"/>
<polygon fill="none" stroke="#666666" points="97,-306 97,-426 241,-426 241,-306 97,-306"/>
</a>
</g>
</g>
<!-- Node2 -->
<g id="Node000002" class="node">
<title>Node2</title>
<g id="a_Node000002"><a xlink:href="classEasyKiConverter_1_1ExporterAltiumFootprint.html" target="_top" xlink:title="Altium 封装导出器">
<polygon fill="white" stroke="transparent" points="154,-270 0,-270 0,0 154,0 154,-270"/>
<text text-anchor="start" x="12.5" y="-258" font-family="Helvetica,sans-Serif" font-size="10.00">EasyKiConverter::Exporter</text>
<text text-anchor="start" x="39" y="-247" font-family="Helvetica,sans-Serif" font-size="10.00">AltiumFootprint</text>
<text text-anchor="start" x="6.5" y="-232" font-family="Helvetica,sans-Serif" font-size="10.00">&#45;</text>
<text text-anchor="start" x="17" y="-232" font-family="Helvetica,sans-Serif" font-size="10.00">m_writer</text>
<text text-anchor="start" x="4" y="-217" font-family="Helvetica,sans-Serif" font-size="10.00">+</text>
<text text-anchor="start" x="17" y="-217" font-family="Helvetica,sans-Serif" font-size="10.00">libraryFileExtension()</text>
<text text-anchor="start" x="4" y="-202" font-family="Helvetica,sans-Serif" font-size="10.00">+</text>
<text text-anchor="start" x="17" y="-202" font-family="Helvetica,sans-Serif" font-size="10.00">isDirectoryOutput()</text>
<text text-anchor="start" x="4" y="-187" font-family="Helvetica,sans-Serif" font-size="10.00">+</text>
<text text-anchor="start" x="17" y="-187" font-family="Helvetica,sans-Serif" font-size="10.00">exportFootprint()</text>
<text text-anchor="start" x="4" y="-172" font-family="Helvetica,sans-Serif" font-size="10.00">+</text>
<text text-anchor="start" x="17" y="-172" font-family="Helvetica,sans-Serif" font-size="10.00">exportFootprintLibrary()</text>
<text text-anchor="start" x="6.5" y="-157" font-family="Helvetica,sans-Serif" font-size="10.00">&#45;</text>
<text text-anchor="start" x="17" y="-157" font-family="Helvetica,sans-Serif" font-size="10.00">convertFootprint()</text>
<text text-anchor="start" x="6.5" y="-142" font-family="Helvetica,sans-Serif" font-size="10.00">&#45;</text>
<text text-anchor="start" x="17" y="-142" font-family="Helvetica,sans-Serif" font-size="10.00">convertPad()</text>
<text text-anchor="start" x="6.5" y="-127" font-family="Helvetica,sans-Serif" font-size="10.00">&#45;</text>
<text text-anchor="start" x="17" y="-127" font-family="Helvetica,sans-Serif" font-size="10.00">convertTrack()</text>
<text text-anchor="start" x="6.5" y="-112" font-family="Helvetica,sans-Serif" font-size="10.00">&#45;</text>
<text text-anchor="start" x="17" y="-112" font-family="Helvetica,sans-Serif" font-size="10.00">convertCircle()</text>
<text text-anchor="start" x="6.5" y="-97" font-family="Helvetica,sans-Serif" font-size="10.00">&#45;</text>
<text text-anchor="start" x="17" y="-97" font-family="Helvetica,sans-Serif" font-size="10.00">convertArc()</text>
<text text-anchor="start" x="6.5" y="-82" font-family="Helvetica,sans-Serif" font-size="10.00">&#45;</text>
<text text-anchor="start" x="17" y="-82" font-family="Helvetica,sans-Serif" font-size="10.00">convertRectangle()</text>
<text text-anchor="start" x="6.5" y="-67" font-family="Helvetica,sans-Serif" font-size="10.00">&#45;</text>
<text text-anchor="start" x="17" y="-67" font-family="Helvetica,sans-Serif" font-size="10.00">convertText()</text>
<text text-anchor="start" x="6.5" y="-52" font-family="Helvetica,sans-Serif" font-size="10.00">&#45;</text>
<text text-anchor="start" x="17" y="-52" font-family="Helvetica,sans-Serif" font-size="10.00">convertSolidRegion()</text>
<text text-anchor="start" x="6.5" y="-37" font-family="Helvetica,sans-Serif" font-size="10.00">&#45;</text>
<text text-anchor="start" x="17" y="-37" font-family="Helvetica,sans-Serif" font-size="10.00">loadStepData()</text>
<text text-anchor="start" x="6.5" y="-22" font-family="Helvetica,sans-Serif" font-size="10.00">&#45;</text>
<text text-anchor="start" x="17" y="-22" font-family="Helvetica,sans-Serif" font-size="10.00">centerComponent()</text>
<text text-anchor="start" x="6.5" y="-7" font-family="Helvetica,sans-Serif" font-size="10.00">&#45;</text>
<text text-anchor="start" x="17" y="-7" font-family="Helvetica,sans-Serif" font-size="10.00">generateComponentBody()</text>
<polygon fill="#666666" stroke="#666666" points="0,-242 0,-242 154,-242 154,-242 0,-242"/>
<polygon fill="#666666" stroke="#666666" points="0,-227 0,-227 15,-227 15,-227 0,-227"/>
<polygon fill="#666666" stroke="#666666" points="15,-227 15,-227 154,-227 154,-227 15,-227"/>
<polygon fill="none" stroke="#666666" points="0,0 0,-270 154,-270 154,0 0,0"/>
</a>
</g>
</g>
<!-- Node1&#45;&gt;Node2 -->
<g id="edge1_Node000001_Node000002" class="edge">
<title>Node1&#45;&gt;Node2</title>
<g id="a_edge1_Node000001_Node000002"><a xlink:title=" ">
<path fill="none" stroke="#63b8ff" d="M141.44,-296.4C138.06,-287.98 134.52,-279.17 130.91,-270.19"/>
<polygon fill="none" stroke="#63b8ff" points="138.21,-297.75 145.19,-305.73 144.71,-295.15 138.21,-297.75"/>
</a>
</g>
</g>
<!-- Node3 -->
<g id="Node000003" class="node">
<title>Node3</title>
<g id="a_Node000003"><a xlink:href="classEasyKiConverter_1_1ExporterFootprint.html" target="_top" xlink:title="KiCad 封装导出器类">
<polygon fill="white" stroke="transparent" points="350,-262.5 172,-262.5 172,-7.5 350,-7.5 350,-262.5"/>
<text text-anchor="start" x="196.5" y="-250" font-family="Helvetica,sans-Serif" font-size="10.00">EasyKiConverter::Exporter</text>
<text text-anchor="start" x="239" y="-239" font-family="Helvetica,sans-Serif" font-size="10.00">Footprint</text>
<text text-anchor="start" x="178.5" y="-224" font-family="Helvetica,sans-Serif" font-size="10.00">&#45;</text>
<text text-anchor="start" x="189" y="-224" font-family="Helvetica,sans-Serif" font-size="10.00">m_graphicsGenerator</text>
<text text-anchor="start" x="176" y="-209" font-family="Helvetica,sans-Serif" font-size="10.00">+</text>
<text text-anchor="start" x="189" y="-209" font-family="Helvetica,sans-Serif" font-size="10.00">ExporterFootprint()</text>
<text text-anchor="start" x="176" y="-194" font-family="Helvetica,sans-Serif" font-size="10.00">+</text>
<text text-anchor="start" x="189" y="-194" font-family="Helvetica,sans-Serif" font-size="10.00">~ExporterFootprint()</text>
<text text-anchor="start" x="176" y="-179" font-family="Helvetica,sans-Serif" font-size="10.00">+</text>
<text text-anchor="start" x="189" y="-179" font-family="Helvetica,sans-Serif" font-size="10.00">libraryFileExtension()</text>
<text text-anchor="start" x="176" y="-164" font-family="Helvetica,sans-Serif" font-size="10.00">+</text>
<text text-anchor="start" x="189" y="-164" font-family="Helvetica,sans-Serif" font-size="10.00">isDirectoryOutput()</text>
<text text-anchor="start" x="176" y="-149" font-family="Helvetica,sans-Serif" font-size="10.00">+</text>
<text text-anchor="start" x="189" y="-149" font-family="Helvetica,sans-Serif" font-size="10.00">exportFootprint()</text>
<text text-anchor="start" x="176" y="-134" font-family="Helvetica,sans-Serif" font-size="10.00">+</text>
<text text-anchor="start" x="189" y="-134" font-family="Helvetica,sans-Serif" font-size="10.00">exportFootprint()</text>
<text text-anchor="start" x="176" y="-119" font-family="Helvetica,sans-Serif" font-size="10.00">+</text>
<text text-anchor="start" x="189" y="-119" font-family="Helvetica,sans-Serif" font-size="10.00">exportFootprintLibrary()</text>
<text text-anchor="start" x="178.5" y="-104" font-family="Helvetica,sans-Serif" font-size="10.00">&#45;</text>
<text text-anchor="start" x="189" y="-104" font-family="Helvetica,sans-Serif" font-size="10.00">generateHeader()</text>
<text text-anchor="start" x="178.5" y="-89" font-family="Helvetica,sans-Serif" font-size="10.00">&#45;</text>
<text text-anchor="start" x="189" y="-89" font-family="Helvetica,sans-Serif" font-size="10.00">buildModel3DPath()</text>
<text text-anchor="start" x="178.5" y="-74" font-family="Helvetica,sans-Serif" font-size="10.00">&#45;</text>
<text text-anchor="start" x="189" y="-74" font-family="Helvetica,sans-Serif" font-size="10.00">generateFootprintBaseContent()</text>
<text text-anchor="start" x="178.5" y="-59" font-family="Helvetica,sans-Serif" font-size="10.00">&#45;</text>
<text text-anchor="start" x="189" y="-59" font-family="Helvetica,sans-Serif" font-size="10.00">generateFootprintContent()</text>
<text text-anchor="start" x="178.5" y="-44" font-family="Helvetica,sans-Serif" font-size="10.00">&#45;</text>
<text text-anchor="start" x="189" y="-44" font-family="Helvetica,sans-Serif" font-size="10.00">generateFootprintContent()</text>
<text text-anchor="start" x="178.5" y="-29" font-family="Helvetica,sans-Serif" font-size="10.00">&#45;</text>
<text text-anchor="start" x="189" y="-29" font-family="Helvetica,sans-Serif" font-size="10.00">generateFootprintContent()</text>
<text text-anchor="start" x="178.5" y="-14" font-family="Helvetica,sans-Serif" font-size="10.00">&#45;</text>
<text text-anchor="start" x="189" y="-14" font-family="Helvetica,sans-Serif" font-size="10.00">generateFootprintContent()</text>
<polygon fill="#666666" stroke="#666666" points="172,-234 172,-234 350,-234 350,-234 172,-234"/>
<polygon fill="#666666" stroke="#666666" points="172,-219 172,-219 187,-219 187,-219 172,-219"/>
<polygon fill="#666666" stroke="#666666" points="187,-219 187,-219 350,-219 350,-219 187,-219"/>
<polygon fill="none" stroke="#666666" points="172,-7.5 172,-262.5 350,-262.5 350,-7.5 172,-7.5"/>
</a>
</g>
</g>
<!-- Node1&#45;&gt;Node3 -->
<g id="edge2_Node000001_Node000003" class="edge">
<title>Node1&#45;&gt;Node3</title>
<g id="a_edge2_Node000001_Node000003"><a xlink:title=" ">
<path fill="none" stroke="#63b8ff" d="M196.54,-296.44C200.87,-285.66 205.46,-274.24 210.12,-262.65"/>
<polygon fill="none" stroke="#63b8ff" points="193.29,-295.15 192.81,-305.73 199.79,-297.75 193.29,-295.15"/>
</a>
</g>
</g>
</g>
</svg>
