<?xml version="1.0" encoding="UTF-8" standalone="no"?>
<!DOCTYPE svg PUBLIC "-//W3C//DTD SVG 1.1//EN"
 "http://www.w3.org/Graphics/SVG/1.1/DTD/svg11.dtd">
<!-- Generated by graphviz version 2.43.0 (0)
 -->
<!-- Title: EasyKiConverter::DatasheetExporter Pages: 1 -->
<svg width="243pt" height="524pt"
 viewBox="0.00 0.00 242.50 524.00" xmlns="http://www.w3.org/2000/svg" xmlns:xlink="http://www.w3.org/1999/xlink">
<g id="graph0" class="graph" transform="scale(1 1) rotate(0) translate(4 520)">
<title>EasyKiConverter::DatasheetExporter</title>
<!-- Node1 -->
<g id="Node000001" class="node">
<title>Node1</title>
<g id="a_Node000001"><a xlink:title=" ">
<polygon fill="#999999" stroke="transparent" points="165.5,-150 10.5,-150 10.5,0 165.5,0 165.5,-150"/>
<text text-anchor="start" x="19.5" y="-138" font-family="Helvetica,sans-Serif" font-size="10.00">EasyKiConverter::Datasheet</text>
<text text-anchor="start" x="67.5" y="-127" font-family="Helvetica,sans-Serif" font-size="10.00">Exporter</text>
<text text-anchor="start" x="86.5" y="-112" font-family="Helvetica,sans-Serif" font-size="10.00"> </text>
<text text-anchor="start" x="15" y="-97" font-family="Helvetica,sans-Serif" font-size="10.00">+</text>
<text text-anchor="start" x="28" y="-97" font-family="Helvetica,sans-Serif" font-size="10.00">DatasheetExporter()</text>
<text text-anchor="start" x="15" y="-82" font-family="Helvetica,sans-Serif" font-size="10.00">+</text>
<text text-anchor="start" x="28" y="-82" font-family="Helvetica,sans-Serif" font-size="10.00">~DatasheetExporter()</text>
<text text-anchor="start" x="15" y="-67" font-family="Helvetica,sans-Serif" font-size="10.00">+</text>
<text text-anchor="start" x="28" y="-67" font-family="Helvetica,sans-Serif" font-size="10.00">setOptions()</text>
<text text-anchor="start" x="15" y="-52" font-family="Helvetica,sans-Serif" font-size="10.00">+</text>
<text text-anchor="start" x="28" y="-52" font-family="Helvetica,sans-Serif" font-size="10.00">exportDatasheet()</text>
<text text-anchor="start" x="15" y="-37" font-family="Helvetica,sans-Serif" font-size="10.00">+</text>
<text text-anchor="start" x="28" y="-37" font-family="Helvetica,sans-Serif" font-size="10.00">exportCompleted()</text>
<text text-anchor="start" x="15" y="-22" font-family="Helvetica,sans-Serif" font-size="10.00">+</text>
<text text-anchor="start" x="28" y="-22" font-family="Helvetica,sans-Serif" font-size="10.00">exportFailed()</text>
<text text-anchor="start" x="17.5" y="-7" font-family="Helvetica,sans-Serif" font-size="10.00">&#45;</text>
<text text-anchor="start" x="28" y="-7" font-family="Helvetica,sans-Serif" font-size="10.00">createDatasheetDirectory()</text>
<polygon fill="#666666" stroke="#666666" points="11,-122 11,-122 166,-122 166,-122 11,-122"/>
<polygon fill="#666666" stroke="#666666" points="11,-107 11,-107 166,-107 166,-107 11,-107"/>
<polygon fill="none" stroke="#666666" points="10.5,0 10.5,-150 165.5,-150 165.5,0 10.5,0"/>
</a>
</g>
</g>
<!-- Node2 -->
<g id="Node000002" class="node">
<title>Node2</title>
<g id="a_Node000002"><a xlink:title=" ">
<polygon fill="white" stroke="transparent" points="50,-381 0,-381 0,-332 50,-332 50,-381"/>
<text text-anchor="start" x="5" y="-368.5" font-family="Helvetica,sans-Serif" font-size="10.00">QObject</text>
<text text-anchor="start" x="23" y="-353.5" font-family="Helvetica,sans-Serif" font-size="10.00"> </text>
<text text-anchor="start" x="23" y="-338.5" font-family="Helvetica,sans-Serif" font-size="10.00"> </text>
<polygon fill="#666666" stroke="#666666" points="0,-363.5 0,-363.5 50,-363.5 50,-363.5 0,-363.5"/>
<polygon fill="#666666" stroke="#666666" points="0,-348.5 0,-348.5 50,-348.5 50,-348.5 0,-348.5"/>
<polygon fill="none" stroke="#666666" points="0,-332 0,-381 50,-381 50,-332 0,-332"/>
</a>
</g>
</g>
<!-- Node2&#45;&gt;Node1 -->
<g id="edge1_Node000001_Node000002" class="edge">
<title>Node2&#45;&gt;Node1</title>
<g id="a_edge1_Node000001_Node000002"><a xlink:title=" ">
<path fill="none" stroke="#63b8ff" d="M32.02,-321.64C38.74,-289.51 49.26,-239.9 59,-197 62.44,-181.83 66.24,-165.63 69.93,-150.16"/>
<polygon fill="none" stroke="#63b8ff" points="28.51,-321.33 29.89,-331.83 35.36,-322.76 28.51,-321.33"/>
</a>
</g>
</g>
<!-- Node3 -->
<g id="Node000003" class="node">
<title>Node3</title>
<g id="a_Node000003"><a xlink:href="structEasyKiConverter_1_1ExportOptions.html" target="_top" xlink:title="导出选项配置">
<polygon fill="white" stroke="transparent" points="234.5,-516 67.5,-516 67.5,-197 234.5,-197 234.5,-516"/>
<text text-anchor="start" x="73" y="-503.5" font-family="Helvetica,sans-Serif" font-size="10.00">EasyKiConverter::ExportOptions</text>
<text text-anchor="start" x="73" y="-488.5" font-family="Helvetica,sans-Serif" font-size="10.00">+</text>
<text text-anchor="start" x="87" y="-488.5" font-family="Helvetica,sans-Serif" font-size="10.00">outputPath</text>
<text text-anchor="start" x="73" y="-473.5" font-family="Helvetica,sans-Serif" font-size="10.00">+</text>
<text text-anchor="start" x="87" y="-473.5" font-family="Helvetica,sans-Serif" font-size="10.00">libName</text>
<text text-anchor="start" x="73" y="-458.5" font-family="Helvetica,sans-Serif" font-size="10.00">+</text>
<text text-anchor="start" x="87" y="-458.5" font-family="Helvetica,sans-Serif" font-size="10.00">targetFormat</text>
<text text-anchor="start" x="73" y="-443.5" font-family="Helvetica,sans-Serif" font-size="10.00">+</text>
<text text-anchor="start" x="87" y="-443.5" font-family="Helvetica,sans-Serif" font-size="10.00">exportSymbol</text>
<text text-anchor="start" x="73" y="-428.5" font-family="Helvetica,sans-Serif" font-size="10.00">+</text>
<text text-anchor="start" x="87" y="-428.5" font-family="Helvetica,sans-Serif" font-size="10.00">exportFootprint</text>
<text text-anchor="start" x="73" y="-413.5" font-family="Helvetica,sans-Serif" font-size="10.00">+</text>
<text text-anchor="start" x="87" y="-413.5" font-family="Helvetica,sans-Serif" font-size="10.00">exportModel3D</text>
<text text-anchor="start" x="73" y="-398.5" font-family="Helvetica,sans-Serif" font-size="10.00">+</text>
<text text-anchor="start" x="87" y="-398.5" font-family="Helvetica,sans-Serif" font-size="10.00">exportModel3DFormat</text>
<text text-anchor="start" x="73" y="-383.5" font-family="Helvetica,sans-Serif" font-size="10.00">+</text>
<text text-anchor="start" x="87" y="-383.5" font-family="Helvetica,sans-Serif" font-size="10.00">exportModel3DPathMode</text>
<text text-anchor="start" x="73" y="-368.5" font-family="Helvetica,sans-Serif" font-size="10.00">+</text>
<text text-anchor="start" x="87" y="-368.5" font-family="Helvetica,sans-Serif" font-size="10.00">exportPreviewImages</text>
<text text-anchor="start" x="73" y="-353.5" font-family="Helvetica,sans-Serif" font-size="10.00">+</text>
<text text-anchor="start" x="87" y="-353.5" font-family="Helvetica,sans-Serif" font-size="10.00">exportDatasheet</text>
<text text-anchor="start" x="87" y="-338.5" font-family="Helvetica,sans-Serif" font-size="10.00">和 10 更多...</text>
<text text-anchor="start" x="73" y="-323.5" font-family="Helvetica,sans-Serif" font-size="10.00">+</text>
<text text-anchor="start" x="87" y="-323.5" font-family="Helvetica,sans-Serif" font-size="10.00">MODEL_3D_FORMAT_NONE</text>
<text text-anchor="start" x="73" y="-308.5" font-family="Helvetica,sans-Serif" font-size="10.00">+</text>
<text text-anchor="start" x="87" y="-308.5" font-family="Helvetica,sans-Serif" font-size="10.00">MODEL_3D_FORMAT_WRL</text>
<text text-anchor="start" x="73" y="-293.5" font-family="Helvetica,sans-Serif" font-size="10.00">+</text>
<text text-anchor="start" x="87" y="-293.5" font-family="Helvetica,sans-Serif" font-size="10.00">MODEL_3D_FORMAT_STEP</text>
<text text-anchor="start" x="73" y="-278.5" font-family="Helvetica,sans-Serif" font-size="10.00">+</text>
<text text-anchor="start" x="87" y="-278.5" font-family="Helvetica,sans-Serif" font-size="10.00">MODEL_3D_FORMAT_BOTH</text>
<text text-anchor="start" x="73" y="-263.5" font-family="Helvetica,sans-Serif" font-size="10.00">+</text>
<text text-anchor="start" x="87" y="-263.5" font-family="Helvetica,sans-Serif" font-size="10.00">MODEL_3D_PATH_RELATIVE</text>
<text text-anchor="start" x="73" y="-248.5" font-family="Helvetica,sans-Serif" font-size="10.00">+</text>
<text text-anchor="start" x="87" y="-248.5" font-family="Helvetica,sans-Serif" font-size="10.00">MODEL_3D_PATH_ABSOLUTE</text>
<text text-anchor="start" x="73" y="-233.5" font-family="Helvetica,sans-Serif" font-size="10.00">+</text>
<text text-anchor="start" x="87" y="-233.5" font-family="Helvetica,sans-Serif" font-size="10.00">needsModel3DWrl()</text>
<text text-anchor="start" x="73" y="-218.5" font-family="Helvetica,sans-Serif" font-size="10.00">+</text>
<text text-anchor="start" x="87" y="-218.5" font-family="Helvetica,sans-Serif" font-size="10.00">needsModel3DStep()</text>
<text text-anchor="start" x="73" y="-203.5" font-family="Helvetica,sans-Serif" font-size="10.00">+</text>
<text text-anchor="start" x="87" y="-203.5" font-family="Helvetica,sans-Serif" font-size="10.00">normalizePathMode()</text>
<polygon fill="#666666" stroke="#666666" points="68,-498.5 68,-498.5 235,-498.5 235,-498.5 68,-498.5"/>
<polygon fill="#666666" stroke="#666666" points="68,-243.5 68,-243.5 85,-243.5 85,-243.5 68,-243.5"/>
<polygon fill="#666666" stroke="#666666" points="85,-243.5 85,-243.5 235,-243.5 235,-243.5 85,-243.5"/>
<polygon fill="none" stroke="#666666" points="67.5,-197 67.5,-516 234.5,-516 234.5,-197 67.5,-197"/>
</a>
</g>
</g>
<!-- Node3&#45;&gt;Node1 -->
<g id="edge2_Node000001_Node000003" class="edge">
<title>Node3&#45;&gt;Node1</title>
<g id="a_edge2_Node000001_Node000003"><a xlink:title=" ">
<path fill="none" stroke="#63b8ff" d="M115.27,-196.97C112.57,-185.02 109.92,-173.27 107.4,-162.05"/>
<polygon fill="none" stroke="#63b8ff" points="107.34,-161.82 102.12,-156.85 104.71,-150.12 109.93,-155.09 107.34,-161.82"/>
</a>
</g>
<text text-anchor="middle" x="140" y="-171" font-family="Helvetica,sans-Serif" font-size="10.00" fill="grey"> &#45;m_options</text>
</g>
</g>
</svg>
