<?xml version="1.0" encoding="UTF-8" standalone="no"?>
<!DOCTYPE svg PUBLIC "-//W3C//DTD SVG 1.1//EN"
 "http://www.w3.org/Graphics/SVG/1.1/DTD/svg11.dtd">
<!-- Generated by graphviz version 2.43.0 (0)
 -->
<!-- Title: core Pages: 1 -->
<svg width="268pt" height="373pt"
 viewBox="0.00 0.00 268.00 373.00" xmlns="http://www.w3.org/2000/svg" xmlns:xlink="http://www.w3.org/1999/xlink">
<g id="graph0" class="graph" transform="scale(1 1) rotate(0) translate(4 369)">
<title>core</title>
<g id="clust1" class="cluster">
<title>clusterdir_4270bfced15e0e73154b13468c7c9ad9</title>
<g id="a_clust1"><a xlink:href="dir_4270bfced15e0e73154b13468c7c9ad9.html" target="_top">
<polygon fill="#edf0f7" stroke="#404040" stroke-width="2" points="8,-47 8,-357 170,-357 170,-47 8,-47"/>
</a>
</g>
</g>
<!-- dir_4270bfced15e0e73154b13468c7c9ad9 -->
<g id="node1" class="node">
<title>dir_4270bfced15e0e73154b13468c7c9ad9</title>
<text text-anchor="middle" x="116" y="-337" font-family="Helvetica,sans-Serif" font-size="10.00">core</text>
</g>
<!-- dir_1333824a0f8f59d34138c3c3865a5a2e -->
<g id="node2" class="node">
<title>dir_1333824a0f8f59d34138c3c3865a5a2e</title>
<g id="a_node2"><a xlink:href="dir_1333824a0f8f59d34138c3c3865a5a2e.html" target="_top" xlink:title="altium">
<polygon fill="#a2b4d6" stroke="#404040" points="162,-294 114,-294 114,-275 162,-275 162,-294"/>
<text text-anchor="middle" x="138" y="-282" font-family="Helvetica,sans-Serif" font-size="10.00">altium</text>
</a>
</g>
</g>
<!-- dir_4270bfced15e0e73154b13468c7c9ad9&#45;&gt;dir_1333824a0f8f59d34138c3c3865a5a2e -->
<g id="edge2" class="edge">
<title>dir_4270bfced15e0e73154b13468c7c9ad9&#45;&gt;dir_1333824a0f8f59d34138c3c3865a5a2e</title>
<g id="a_edge2"><a xlink:href="dir_000004_000000.html" target="_top">
<path fill="none" stroke="#63b8ff" d="M119.63,-329.75C122.58,-322.65 126.83,-312.4 130.51,-303.56"/>
<polygon fill="#63b8ff" stroke="#63b8ff" points="133.83,-304.67 134.43,-294.09 127.37,-301.98 133.83,-304.67"/>
</a>
</g>
<g id="a_edge2&#45;headlabel"><a xlink:href="dir_000004_000000.html" target="_top" xlink:title="24">
<text text-anchor="middle" x="135.08" y="-306.58" font-family="Helvetica,sans-Serif" font-size="10.00" fill="#63b8ff">24</text>
</a>
</g>
</g>
<!-- dir_2326a73db588470b78463e2a7b79ca38 -->
<g id="node4" class="node">
<title>dir_2326a73db588470b78463e2a7b79ca38</title>
<g id="a_node4"><a xlink:href="dir_2326a73db588470b78463e2a7b79ca38.html" target="_top" xlink:title="interfaces">
<polygon fill="#a2b4d6" stroke="#404040" points="141.5,-239 76.5,-239 76.5,-220 141.5,-220 141.5,-239"/>
<text text-anchor="middle" x="109" y="-227" font-family="Helvetica,sans-Serif" font-size="10.00">interfaces</text>
</a>
</g>
</g>
<!-- dir_4270bfced15e0e73154b13468c7c9ad9&#45;&gt;dir_2326a73db588470b78463e2a7b79ca38 -->
<g id="edge3" class="edge">
<title>dir_4270bfced15e0e73154b13468c7c9ad9&#45;&gt;dir_2326a73db588470b78463e2a7b79ca38</title>
<g id="a_edge3"><a xlink:href="dir_000004_000008.html" target="_top">
<path fill="none" stroke="#63b8ff" d="M113.17,-329.75C110.45,-320.86 106.54,-306.64 105,-294 103.18,-279.06 104.43,-262.03 106,-249.37"/>
<polygon fill="#63b8ff" stroke="#63b8ff" points="109.51,-249.55 107.45,-239.16 102.58,-248.57 109.51,-249.55"/>
</a>
</g>
<g id="a_edge3&#45;headlabel"><a xlink:href="dir_000004_000008.html" target="_top" xlink:title="8">
<text text-anchor="middle" x="111.82" y="-251.01" font-family="Helvetica,sans-Serif" font-size="10.00" fill="#63b8ff">8</text>
</a>
</g>
</g>
<!-- dir_ad1ddbc3e0d75829e0afe087a249d2ba -->
<g id="node6" class="node">
<title>dir_ad1ddbc3e0d75829e0afe087a249d2ba</title>
<g id="a_node6"><a xlink:href="dir_ad1ddbc3e0d75829e0afe087a249d2ba.html" target="_top" xlink:title="kicad">
<polygon fill="#a2b4d6" stroke="#404040" points="75.5,-294 32.5,-294 32.5,-275 75.5,-275 75.5,-294"/>
<text text-anchor="middle" x="54" y="-282" font-family="Helvetica,sans-Serif" font-size="10.00">kicad</text>
</a>
</g>
</g>
<!-- dir_4270bfced15e0e73154b13468c7c9ad9&#45;&gt;dir_ad1ddbc3e0d75829e0afe087a249d2ba -->
<g id="edge4" class="edge">
<title>dir_4270bfced15e0e73154b13468c7c9ad9&#45;&gt;dir_ad1ddbc3e0d75829e0afe087a249d2ba</title>
<g id="a_edge4"><a xlink:href="dir_000004_000010.html" target="_top">
<path fill="none" stroke="#63b8ff" d="M106.04,-329.98C96.87,-322.15 83.06,-310.34 71.97,-300.86"/>
<polygon fill="#63b8ff" stroke="#63b8ff" points="74.02,-298.01 64.14,-294.17 69.47,-303.33 74.02,-298.01"/>
</a>
</g>
<g id="a_edge4&#45;headlabel"><a xlink:href="dir_000004_000010.html" target="_top" xlink:title="3">
<text text-anchor="middle" x="78.6" y="-295.69" font-family="Helvetica,sans-Serif" font-size="10.00" fill="#63b8ff">3</text>
</a>
</g>
</g>
<!-- dir_056ec8f0377ddc4293192cbc6b19c99c -->
<g id="node9" class="node">
<title>dir_056ec8f0377ddc4293192cbc6b19c99c</title>
<g id="a_node9"><a xlink:href="dir_056ec8f0377ddc4293192cbc6b19c99c.html" target="_top" xlink:title="services">
<polygon fill="#edf0f7" stroke="red" points="237.5,-294 180.5,-294 180.5,-275 237.5,-275 237.5,-294"/>
<text text-anchor="middle" x="209" y="-282" font-family="Helvetica,sans-Serif" font-size="10.00">services</text>
</a>
</g>
</g>
<!-- dir_4270bfced15e0e73154b13468c7c9ad9&#45;&gt;dir_056ec8f0377ddc4293192cbc6b19c99c -->
<g id="edge1" class="edge">
<title>dir_4270bfced15e0e73154b13468c7c9ad9&#45;&gt;dir_056ec8f0377ddc4293192cbc6b19c99c</title>
<g id="a_edge1"><a xlink:href="dir_000004_000016.html" target="_top">
<path fill="none" stroke="#63b8ff" d="M130.94,-329.98C145.5,-321.69 167.87,-308.94 184.93,-299.22"/>
<polygon fill="#63b8ff" stroke="#63b8ff" points="186.83,-302.16 193.79,-294.17 183.36,-296.08 186.83,-302.16"/>
</a>
</g>
<g id="a_edge1&#45;headlabel"><a xlink:href="dir_000004_000016.html" target="_top" xlink:title="2">
<text text-anchor="middle" x="185.11" y="-303.91" font-family="Helvetica,sans-Serif" font-size="10.00" fill="#63b8ff">2</text>
</a>
</g>
</g>
<!-- dir_1333824a0f8f59d34138c3c3865a5a2e&#45;&gt;dir_2326a73db588470b78463e2a7b79ca38 -->
<g id="edge5" class="edge">
<title>dir_1333824a0f8f59d34138c3c3865a5a2e&#45;&gt;dir_2326a73db588470b78463e2a7b79ca38</title>
<g id="a_edge5"><a xlink:href="dir_000000_000008.html" target="_top">
<path fill="none" stroke="#63b8ff" d="M133.21,-274.75C129.24,-267.49 123.47,-256.95 118.57,-247.98"/>
<polygon fill="#63b8ff" stroke="#63b8ff" points="121.57,-246.18 113.7,-239.09 115.43,-249.54 121.57,-246.18"/>
</a>
</g>
<g id="a_edge5&#45;headlabel"><a xlink:href="dir_000000_000008.html" target="_top" xlink:title="2">
<text text-anchor="middle" x="125.79" y="-245.47" font-family="Helvetica,sans-Serif" font-size="10.00" fill="#63b8ff">2</text>
</a>
</g>
</g>
<!-- dir_f90f91cbf7b973d2ec9d8c4dc24c1c5f -->
<g id="node5" class="node">
<title>dir_f90f91cbf7b973d2ec9d8c4dc24c1c5f</title>
<g id="a_node5"><a xlink:href="dir_f90f91cbf7b973d2ec9d8c4dc24c1c5f.html" target="_top" xlink:title="ir">
<polygon fill="#a2b4d6" stroke="#404040" points="161.5,-184 132.5,-184 132.5,-165 161.5,-165 161.5,-184"/>
<text text-anchor="middle" x="147" y="-172" font-family="Helvetica,sans-Serif" font-size="10.00">ir</text>
</a>
</g>
</g>
<!-- dir_1333824a0f8f59d34138c3c3865a5a2e&#45;&gt;dir_f90f91cbf7b973d2ec9d8c4dc24c1c5f -->
<g id="edge6" class="edge">
<title>dir_1333824a0f8f59d34138c3c3865a5a2e&#45;&gt;dir_f90f91cbf7b973d2ec9d8c4dc24c1c5f</title>
<g id="a_edge6"><a xlink:href="dir_000000_000009.html" target="_top">
<path fill="none" stroke="#63b8ff" d="M141.09,-274.77C144.05,-265.9 148.32,-251.69 150,-239 151.98,-224.09 151,-207.06 149.65,-194.39"/>
<polygon fill="#63b8ff" stroke="#63b8ff" points="153.09,-193.66 148.38,-184.17 146.14,-194.52 153.09,-193.66"/>
</a>
</g>
<g id="a_edge6&#45;headlabel"><a xlink:href="dir_000000_000009.html" target="_top" xlink:title="3">
<text text-anchor="middle" x="156.35" y="-194.38" font-family="Helvetica,sans-Serif" font-size="10.00" fill="#63b8ff">3</text>
</a>
</g>
</g>
<!-- dir_0eb87cc7e55f2d1b240c9327aae69f5c -->
<g id="node3" class="node">
<title>dir_0eb87cc7e55f2d1b240c9327aae69f5c</title>
<g id="a_node3"><a xlink:href="dir_0eb87cc7e55f2d1b240c9327aae69f5c.html" target="_top" xlink:title="easyeda">
<polygon fill="#a2b4d6" stroke="#404040" points="114,-184 56,-184 56,-165 114,-165 114,-184"/>
<text text-anchor="middle" x="85" y="-172" font-family="Helvetica,sans-Serif" font-size="10.00">easyeda</text>
</a>
</g>
</g>
<!-- dir_e47a0da176a2d81021b9e15379f1915c -->
<g id="node7" class="node">
<title>dir_e47a0da176a2d81021b9e15379f1915c</title>
<g id="a_node7"><a xlink:href="dir_e47a0da176a2d81021b9e15379f1915c.html" target="_top" xlink:title="network">
<polygon fill="#a2b4d6" stroke="#404040" points="98,-74 42,-74 42,-55 98,-55 98,-74"/>
<text text-anchor="middle" x="70" y="-62" font-family="Helvetica,sans-Serif" font-size="10.00">network</text>
</a>
</g>
</g>
<!-- dir_0eb87cc7e55f2d1b240c9327aae69f5c&#45;&gt;dir_e47a0da176a2d81021b9e15379f1915c -->
<g id="edge9" class="edge">
<title>dir_0eb87cc7e55f2d1b240c9327aae69f5c&#45;&gt;dir_e47a0da176a2d81021b9e15379f1915c</title>
<g id="a_edge9"><a xlink:href="dir_000006_000014.html" target="_top">
<path fill="none" stroke="#63b8ff" d="M89.43,-164.77C95.1,-152.43 103.55,-129.25 98,-110 95.13,-100.06 89.32,-90.2 83.72,-82.29"/>
<polygon fill="#63b8ff" stroke="#63b8ff" points="86.5,-80.16 77.67,-74.3 80.92,-84.39 86.5,-80.16"/>
</a>
</g>
<g id="a_edge9&#45;headlabel"><a xlink:href="dir_000006_000014.html" target="_top" xlink:title="4">
<text text-anchor="middle" x="90.93" y="-78.82" font-family="Helvetica,sans-Serif" font-size="10.00" fill="#63b8ff">4</text>
</a>
</g>
</g>
<!-- dir_182a39db29e4ad63eb633860d83c5a1d -->
<g id="node8" class="node">
<title>dir_182a39db29e4ad63eb633860d83c5a1d</title>
<g id="a_node8"><a xlink:href="dir_182a39db29e4ad63eb633860d83c5a1d.html" target="_top" xlink:title="utils">
<polygon fill="#a2b4d6" stroke="#404040" points="89,-129 51,-129 51,-110 89,-110 89,-129"/>
<text text-anchor="middle" x="70" y="-117" font-family="Helvetica,sans-Serif" font-size="10.00">utils</text>
</a>
</g>
</g>
<!-- dir_0eb87cc7e55f2d1b240c9327aae69f5c&#45;&gt;dir_182a39db29e4ad63eb633860d83c5a1d -->
<g id="edge7" class="edge">
<title>dir_0eb87cc7e55f2d1b240c9327aae69f5c&#45;&gt;dir_182a39db29e4ad63eb633860d83c5a1d</title>
<g id="a_edge7"><a xlink:href="dir_000006_000020.html" target="_top">
<path fill="none" stroke="#63b8ff" d="M82.52,-164.75C80.54,-157.72 77.68,-147.62 75.19,-138.84"/>
<polygon fill="#63b8ff" stroke="#63b8ff" points="78.52,-137.76 72.43,-129.09 71.79,-139.66 78.52,-137.76"/>
</a>
</g>
<g id="a_edge7&#45;headlabel"><a xlink:href="dir_000006_000020.html" target="_top" xlink:title="1">
<text text-anchor="middle" x="82.23" y="-137.94" font-family="Helvetica,sans-Serif" font-size="10.00" fill="#63b8ff">1</text>
</a>
</g>
</g>
<!-- dir_1ae4179d5e953611aae20c997279e02c -->
<g id="node10" class="node">
<title>dir_1ae4179d5e953611aae20c997279e02c</title>
<g id="a_node10"><a xlink:href="dir_1ae4179d5e953611aae20c997279e02c.html" target="_top" xlink:title="models">
<polygon fill="#edf0f7" stroke="#404040" points="231.5,-129 178.5,-129 178.5,-110 231.5,-110 231.5,-129"/>
<text text-anchor="middle" x="205" y="-117" font-family="Helvetica,sans-Serif" font-size="10.00">models</text>
</a>
</g>
</g>
<!-- dir_0eb87cc7e55f2d1b240c9327aae69f5c&#45;&gt;dir_1ae4179d5e953611aae20c997279e02c -->
<g id="edge8" class="edge">
<title>dir_0eb87cc7e55f2d1b240c9327aae69f5c&#45;&gt;dir_1ae4179d5e953611aae20c997279e02c</title>
<g id="a_edge8"><a xlink:href="dir_000006_000013.html" target="_top">
<path fill="none" stroke="#63b8ff" d="M104.28,-164.98C123.67,-156.42 153.81,-143.11 176.07,-133.28"/>
<polygon fill="#63b8ff" stroke="#63b8ff" points="177.64,-136.41 185.37,-129.17 174.81,-130.01 177.64,-136.41"/>
</a>
</g>
<g id="a_edge8&#45;headlabel"><a xlink:href="dir_000006_000013.html" target="_top" xlink:title="4">
<text text-anchor="middle" x="175.49" y="-137.96" font-family="Helvetica,sans-Serif" font-size="10.00" fill="#63b8ff">4</text>
</a>
</g>
</g>
<!-- dir_2326a73db588470b78463e2a7b79ca38&#45;&gt;dir_f90f91cbf7b973d2ec9d8c4dc24c1c5f -->
<g id="edge10" class="edge">
<title>dir_2326a73db588470b78463e2a7b79ca38&#45;&gt;dir_f90f91cbf7b973d2ec9d8c4dc24c1c5f</title>
<g id="a_edge10"><a xlink:href="dir_000008_000009.html" target="_top">
<path fill="none" stroke="#63b8ff" d="M115.27,-219.75C120.59,-212.34 128.36,-201.5 134.88,-192.41"/>
<polygon fill="#63b8ff" stroke="#63b8ff" points="137.86,-194.26 140.84,-184.09 132.17,-190.18 137.86,-194.26"/>
</a>
</g>
<g id="a_edge10&#45;headlabel"><a xlink:href="dir_000008_000009.html" target="_top" xlink:title="3">
<text text-anchor="middle" x="138.07" y="-196.33" font-family="Helvetica,sans-Serif" font-size="10.00" fill="#63b8ff">3</text>
</a>
</g>
</g>
<!-- dir_f90f91cbf7b973d2ec9d8c4dc24c1c5f&#45;&gt;dir_182a39db29e4ad63eb633860d83c5a1d -->
<g id="edge11" class="edge">
<title>dir_f90f91cbf7b973d2ec9d8c4dc24c1c5f&#45;&gt;dir_182a39db29e4ad63eb633860d83c5a1d</title>
<g id="a_edge11"><a xlink:href="dir_000009_000020.html" target="_top">
<path fill="none" stroke="#63b8ff" d="M134.63,-164.98C122.91,-156.92 105.08,-144.65 91.11,-135.03"/>
<polygon fill="#63b8ff" stroke="#63b8ff" points="92.82,-131.96 82.6,-129.17 88.85,-137.72 92.82,-131.96"/>
</a>
</g>
<g id="a_edge11&#45;headlabel"><a xlink:href="dir_000009_000020.html" target="_top" xlink:title="1">
<text text-anchor="middle" x="97.39" y="-129.16" font-family="Helvetica,sans-Serif" font-size="10.00" fill="#63b8ff">1</text>
</a>
</g>
</g>
<!-- dir_f90f91cbf7b973d2ec9d8c4dc24c1c5f&#45;&gt;dir_1ae4179d5e953611aae20c997279e02c -->
<g id="edge12" class="edge">
<title>dir_f90f91cbf7b973d2ec9d8c4dc24c1c5f&#45;&gt;dir_1ae4179d5e953611aae20c997279e02c</title>
<g id="a_edge12"><a xlink:href="dir_000009_000013.html" target="_top">
<path fill="none" stroke="#63b8ff" d="M156.32,-164.98C164.81,-157.23 177.56,-145.58 187.88,-136.14"/>
<polygon fill="#63b8ff" stroke="#63b8ff" points="190.49,-138.5 195.51,-129.17 185.77,-133.33 190.49,-138.5"/>
</a>
</g>
<g id="a_edge12&#45;headlabel"><a xlink:href="dir_000009_000013.html" target="_top" xlink:title="4">
<text text-anchor="middle" x="189.75" y="-140.52" font-family="Helvetica,sans-Serif" font-size="10.00" fill="#63b8ff">4</text>
</a>
</g>
</g>
<!-- dir_ad1ddbc3e0d75829e0afe087a249d2ba&#45;&gt;dir_2326a73db588470b78463e2a7b79ca38 -->
<g id="edge14" class="edge">
<title>dir_ad1ddbc3e0d75829e0afe087a249d2ba&#45;&gt;dir_2326a73db588470b78463e2a7b79ca38</title>
<g id="a_edge14"><a xlink:href="dir_000010_000008.html" target="_top">
<path fill="none" stroke="#63b8ff" d="M63.08,-274.75C71.09,-267.03 82.96,-255.6 92.62,-246.28"/>
<polygon fill="#63b8ff" stroke="#63b8ff" points="95.31,-248.55 100.09,-239.09 90.46,-243.51 95.31,-248.55"/>
</a>
</g>
<g id="a_edge14&#45;headlabel"><a xlink:href="dir_000010_000008.html" target="_top" xlink:title="3">
<text text-anchor="middle" x="94.7" y="-250.59" font-family="Helvetica,sans-Serif" font-size="10.00" fill="#63b8ff">3</text>
</a>
</g>
</g>
<!-- dir_ad1ddbc3e0d75829e0afe087a249d2ba&#45;&gt;dir_f90f91cbf7b973d2ec9d8c4dc24c1c5f -->
<g id="edge17" class="edge">
<title>dir_ad1ddbc3e0d75829e0afe087a249d2ba&#45;&gt;dir_f90f91cbf7b973d2ec9d8c4dc24c1c5f</title>
<g id="a_edge17"><a xlink:href="dir_000010_000009.html" target="_top">
<path fill="none" stroke="#63b8ff" d="M53.6,-274.79C53.43,-261.64 54.89,-236.52 67,-220 74.3,-210.04 102.21,-195.78 123.03,-186.1"/>
<polygon fill="#63b8ff" stroke="#63b8ff" points="124.62,-189.22 132.27,-181.89 121.72,-182.85 124.62,-189.22"/>
</a>
</g>
<g id="a_edge17&#45;headlabel"><a xlink:href="dir_000010_000009.html" target="_top" xlink:title="5">
<text text-anchor="middle" x="122.53" y="-190.8" font-family="Helvetica,sans-Serif" font-size="10.00" fill="#63b8ff">5</text>
</a>
</g>
</g>
<!-- dir_ad1ddbc3e0d75829e0afe087a249d2ba&#45;&gt;dir_e47a0da176a2d81021b9e15379f1915c -->
<g id="edge16" class="edge">
<title>dir_ad1ddbc3e0d75829e0afe087a249d2ba&#45;&gt;dir_e47a0da176a2d81021b9e15379f1915c</title>
<g id="a_edge16"><a xlink:href="dir_000010_000014.html" target="_top">
<path fill="none" stroke="#63b8ff" d="M50.4,-274.82C46.94,-265.99 41.97,-251.81 40,-239 31.3,-182.32 25.11,-164.8 42,-110 45.09,-99.99 51.04,-90.01 56.66,-82.04"/>
<polygon fill="#63b8ff" stroke="#63b8ff" points="59.48,-84.11 62.7,-74.01 53.89,-79.9 59.48,-84.11"/>
</a>
</g>
<g id="a_edge16&#45;headlabel"><a xlink:href="dir_000010_000014.html" target="_top" xlink:title="1">
<text text-anchor="middle" x="59.59" y="-86.19" font-family="Helvetica,sans-Serif" font-size="10.00" fill="#63b8ff">1</text>
</a>
</g>
</g>
<!-- dir_ad1ddbc3e0d75829e0afe087a249d2ba&#45;&gt;dir_182a39db29e4ad63eb633860d83c5a1d -->
<g id="edge13" class="edge">
<title>dir_ad1ddbc3e0d75829e0afe087a249d2ba&#45;&gt;dir_182a39db29e4ad63eb633860d83c5a1d</title>
<g id="a_edge13"><a xlink:href="dir_000010_000020.html" target="_top">
<path fill="none" stroke="#63b8ff" d="M51.74,-274.72C47.01,-254.85 37.26,-205.05 47,-165 49.31,-155.51 54.02,-145.78 58.58,-137.85"/>
<polygon fill="#63b8ff" stroke="#63b8ff" points="61.64,-139.55 63.9,-129.2 55.68,-135.89 61.64,-139.55"/>
</a>
</g>
<g id="a_edge13&#45;headlabel"><a xlink:href="dir_000010_000020.html" target="_top" xlink:title="1">
<text text-anchor="middle" x="62.17" y="-141.6" font-family="Helvetica,sans-Serif" font-size="10.00" fill="#63b8ff">1</text>
</a>
</g>
</g>
<!-- dir_cbdb8362360e11eafe2fa3bc74cf0ffd -->
<g id="node11" class="node">
<title>dir_cbdb8362360e11eafe2fa3bc74cf0ffd</title>
<g id="a_node11"><a xlink:href="dir_cbdb8362360e11eafe2fa3bc74cf0ffd.html" target="_top" xlink:title="utils">
<polygon fill="#edf0f7" stroke="red" points="184,-19 146,-19 146,0 184,0 184,-19"/>
<text text-anchor="middle" x="165" y="-7" font-family="Helvetica,sans-Serif" font-size="10.00">utils</text>
</a>
</g>
</g>
<!-- dir_ad1ddbc3e0d75829e0afe087a249d2ba&#45;&gt;dir_cbdb8362360e11eafe2fa3bc74cf0ffd -->
<g id="edge15" class="edge">
<title>dir_ad1ddbc3e0d75829e0afe087a249d2ba&#45;&gt;dir_cbdb8362360e11eafe2fa3bc74cf0ffd</title>
<g id="a_edge15"><a xlink:href="dir_000010_000022.html" target="_top">
<path fill="none" stroke="#63b8ff" d="M75.66,-277.16C128.55,-261.03 260,-216.79 260,-175.5 260,-175.5 260,-175.5 260,-118.5 260,-75.91 217.84,-42.14 189.69,-24.33"/>
<polygon fill="#63b8ff" stroke="#63b8ff" points="191.48,-21.32 181.12,-19.12 187.84,-27.31 191.48,-21.32"/>
</a>
</g>
<g id="a_edge15&#45;headlabel"><a xlink:href="dir_000010_000022.html" target="_top" xlink:title="1">
<text text-anchor="middle" x="196.03" y="-18.26" font-family="Helvetica,sans-Serif" font-size="10.00" fill="#63b8ff">1</text>
</a>
</g>
</g>
<!-- dir_e47a0da176a2d81021b9e15379f1915c&#45;&gt;dir_182a39db29e4ad63eb633860d83c5a1d -->
<g id="edge18" class="edge">
<title>dir_e47a0da176a2d81021b9e15379f1915c&#45;&gt;dir_182a39db29e4ad63eb633860d83c5a1d</title>
<g id="a_edge18"><a xlink:href="dir_000014_000020.html" target="_top">
<path fill="none" stroke="#63b8ff" d="M75.13,-74.09C76.64,-80.99 77.09,-90.93 76.49,-99.66"/>
<polygon fill="#63b8ff" stroke="#63b8ff" points="73,-99.38 75.17,-109.75 79.94,-100.29 73,-99.38"/>
</a>
</g>
<g id="a_edge18&#45;headlabel"><a xlink:href="dir_000014_000020.html" target="_top" xlink:title="4">
<text text-anchor="middle" x="70.65" y="-92.94" font-family="Helvetica,sans-Serif" font-size="10.00" fill="#63b8ff">4</text>
</a>
</g>
</g>
<!-- dir_e47a0da176a2d81021b9e15379f1915c&#45;&gt;dir_cbdb8362360e11eafe2fa3bc74cf0ffd -->
<g id="edge19" class="edge">
<title>dir_e47a0da176a2d81021b9e15379f1915c&#45;&gt;dir_cbdb8362360e11eafe2fa3bc74cf0ffd</title>
<g id="a_edge19"><a xlink:href="dir_000014_000022.html" target="_top">
<path fill="none" stroke="#63b8ff" d="M85.26,-54.98C100.13,-46.69 122.98,-33.94 140.42,-24.22"/>
<polygon fill="#63b8ff" stroke="#63b8ff" points="142.43,-27.1 149.46,-19.17 139.02,-20.99 142.43,-27.1"/>
</a>
</g>
<g id="a_edge19&#45;headlabel"><a xlink:href="dir_000014_000022.html" target="_top" xlink:title="1">
<text text-anchor="middle" x="140.68" y="-28.83" font-family="Helvetica,sans-Serif" font-size="10.00" fill="#63b8ff">1</text>
</a>
</g>
</g>
<!-- dir_182a39db29e4ad63eb633860d83c5a1d&#45;&gt;dir_e47a0da176a2d81021b9e15379f1915c -->
<g id="edge20" class="edge">
<title>dir_182a39db29e4ad63eb633860d83c5a1d&#45;&gt;dir_e47a0da176a2d81021b9e15379f1915c</title>
<g id="a_edge20"><a xlink:href="dir_000020_000014.html" target="_top">
<path fill="none" stroke="#63b8ff" d="M64.83,-109.75C63.34,-102.8 62.9,-92.85 63.52,-84.13"/>
<polygon fill="#63b8ff" stroke="#63b8ff" points="67.01,-84.47 64.87,-74.09 60.07,-83.53 67.01,-84.47"/>
</a>
</g>
<g id="a_edge20&#45;headlabel"><a xlink:href="dir_000020_000014.html" target="_top" xlink:title="1">
<text text-anchor="middle" x="69.34" y="-85.91" font-family="Helvetica,sans-Serif" font-size="10.00" fill="#63b8ff">1</text>
</a>
</g>
</g>
</g>
</svg>
