<?xml version="1.0" encoding="UTF-8" standalone="no"?>
<!DOCTYPE svg PUBLIC "-//W3C//DTD SVG 1.1//EN"
 "http://www.w3.org/Graphics/SVG/1.1/DTD/svg11.dtd">
<!-- Generated by graphviz version 2.43.0 (0)
 -->
<!-- Title: core/interfaces/IModel3DExporter.h Pages: 1 -->
<svg width="1211pt" height="203pt"
 viewBox="0.00 0.00 1211.20 203.00" xmlns="http://www.w3.org/2000/svg" xmlns:xlink="http://www.w3.org/1999/xlink">
<g id="graph0" class="graph" transform="scale(1 1) rotate(0) translate(4 199)">
<title>core/interfaces/IModel3DExporter.h</title>
<!-- Node1 -->
<g id="Node000001" class="node">
<title>Node1</title>
<g id="a_Node000001"><a xlink:title=" ">
<polygon fill="#999999" stroke="#666666" points="537.5,-195 349.5,-195 349.5,-176 537.5,-176 537.5,-195"/>
<text text-anchor="middle" x="443.5" y="-183" font-family="Helvetica,sans-Serif" font-size="10.00">core/interfaces/IModel3DExporter.h</text>
</a>
</g>
</g>
<!-- Node2 -->
<g id="Node000002" class="node">
<title>Node2</title>
<g id="a_Node000002"><a xlink:href="ExporterFactory_8h.html" target="_top" xlink:title=" ">
<polygon fill="white" stroke="#666666" points="425,-140 300,-140 300,-121 425,-121 425,-140"/>
<text text-anchor="middle" x="362.5" y="-128" font-family="Helvetica,sans-Serif" font-size="10.00">core/ExporterFactory.h</text>
</a>
</g>
</g>
<!-- Node1&#45;&gt;Node2 -->
<g id="edge1_Node000001_Node000002" class="edge">
<title>Node1&#45;&gt;Node2</title>
<g id="a_edge1_Node000001_Node000002"><a xlink:title=" ">
<path fill="none" stroke="#63b8ff" d="M421.99,-170.42C407.29,-160.81 388.28,-148.37 375.75,-140.17"/>
<polygon fill="#63b8ff" stroke="#63b8ff" points="420.2,-173.44 430.49,-175.98 424.03,-167.58 420.2,-173.44"/>
</a>
</g>
</g>
<!-- Node6 -->
<g id="Node000006" class="node">
<title>Node6</title>
<g id="a_Node000006"><a xlink:href="Exporter3DModel_8h.html" target="_top" xlink:title=" ">
<polygon fill="white" stroke="#666666" points="678.5,-140 514.5,-140 514.5,-121 678.5,-121 678.5,-140"/>
<text text-anchor="middle" x="596.5" y="-128" font-family="Helvetica,sans-Serif" font-size="10.00">core/kicad/Exporter3DModel.h</text>
</a>
</g>
</g>
<!-- Node1&#45;&gt;Node6 -->
<g id="edge5_Node000001_Node000006" class="edge">
<title>Node1&#45;&gt;Node6</title>
<g id="a_edge5_Node000001_Node000006"><a xlink:title=" ">
<path fill="none" stroke="#63b8ff" d="M477.65,-172.67C506.18,-162.79 546.19,-148.93 571.73,-140.08"/>
<polygon fill="#63b8ff" stroke="#63b8ff" points="476.39,-169.4 468.08,-175.98 478.68,-176.02 476.39,-169.4"/>
</a>
</g>
</g>
<!-- Node3 -->
<g id="Node000003" class="node">
<title>Node3</title>
<g id="a_Node000003"><a xlink:href="ExporterFactory_8cpp.html" target="_top" xlink:title=" ">
<polygon fill="white" stroke="#666666" points="317.5,-79.5 181.5,-79.5 181.5,-60.5 317.5,-60.5 317.5,-79.5"/>
<text text-anchor="middle" x="249.5" y="-67.5" font-family="Helvetica,sans-Serif" font-size="10.00">core/ExporterFactory.cpp</text>
</a>
</g>
</g>
<!-- Node2&#45;&gt;Node3 -->
<g id="edge2_Node000002_Node000003" class="edge">
<title>Node2&#45;&gt;Node3</title>
<g id="a_edge2_Node000002_Node000003"><a xlink:title=" ">
<path fill="none" stroke="#63b8ff" d="M336.86,-116.23C315.22,-105.03 284.88,-89.32 266.24,-79.67"/>
<polygon fill="#63b8ff" stroke="#63b8ff" points="335.34,-119.38 345.83,-120.87 338.56,-113.16 335.34,-119.38"/>
</a>
</g>
</g>
<!-- Node4 -->
<g id="Node000004" class="node">
<title>Node4</title>
<g id="a_Node000004"><a xlink:href="FootprintExportStage_8cpp.html" target="_top" xlink:title=" ">
<polygon fill="white" stroke="#666666" points="473.5,-85 335.5,-85 335.5,-55 473.5,-55 473.5,-85"/>
<text text-anchor="start" x="343.5" y="-73" font-family="Helvetica,sans-Serif" font-size="10.00">services/export/Footprint</text>
<text text-anchor="middle" x="404.5" y="-62" font-family="Helvetica,sans-Serif" font-size="10.00">ExportStage.cpp</text>
</a>
</g>
</g>
<!-- Node2&#45;&gt;Node4 -->
<g id="edge3_Node000002_Node000004" class="edge">
<title>Node2&#45;&gt;Node4</title>
<g id="a_edge3_Node000002_Node000004"><a xlink:title=" ">
<path fill="none" stroke="#63b8ff" d="M374.63,-112.61C380.88,-103.89 388.43,-93.39 394.37,-85.11"/>
<polygon fill="#63b8ff" stroke="#63b8ff" points="371.69,-110.7 368.7,-120.87 377.37,-114.79 371.69,-110.7"/>
</a>
</g>
</g>
<!-- Node5 -->
<g id="Node000005" class="node">
<title>Node5</title>
<g id="a_Node000005"><a xlink:href="SymbolExportStage_8cpp.html" target="_top" xlink:title=" ">
<polygon fill="white" stroke="#666666" points="163,-85 0,-85 0,-55 163,-55 163,-85"/>
<text text-anchor="start" x="8" y="-73" font-family="Helvetica,sans-Serif" font-size="10.00">services/export/SymbolExport</text>
<text text-anchor="middle" x="81.5" y="-62" font-family="Helvetica,sans-Serif" font-size="10.00">Stage.cpp</text>
</a>
</g>
</g>
<!-- Node2&#45;&gt;Node5 -->
<g id="edge4_Node000002_Node000005" class="edge">
<title>Node2&#45;&gt;Node5</title>
<g id="a_edge4_Node000002_Node000005"><a xlink:title=" ">
<path fill="none" stroke="#63b8ff" d="M311.68,-118.92C266.09,-109.43 198.83,-95.43 148.78,-85.01"/>
<polygon fill="#63b8ff" stroke="#63b8ff" points="311.14,-122.38 321.64,-120.99 312.56,-115.53 311.14,-122.38"/>
</a>
</g>
</g>
<!-- Node6&#45;&gt;Node3 -->
<g id="edge6_Node000006_Node000003" class="edge">
<title>Node6&#45;&gt;Node3</title>
<g id="a_edge6_Node000006_Node000003"><a xlink:title=" ">
<path fill="none" stroke="#63b8ff" d="M533.27,-119.38C478.52,-110.55 397.23,-97.26 326.5,-85 316.59,-83.28 305.98,-81.39 295.9,-79.56"/>
<polygon fill="#63b8ff" stroke="#63b8ff" points="532.75,-122.84 543.18,-120.98 533.86,-115.93 532.75,-122.84"/>
</a>
</g>
</g>
<!-- Node6&#45;&gt;Node4 -->
<g id="edge8_Node000006_Node000004" class="edge">
<title>Node6&#45;&gt;Node4</title>
<g id="a_edge8_Node000006_Node000004"><a xlink:title=" ">
<path fill="none" stroke="#63b8ff" d="M559.01,-118.08C528,-108.63 483.84,-95.17 450.66,-85.06"/>
<polygon fill="#63b8ff" stroke="#63b8ff" points="558,-121.43 568.58,-120.99 560.04,-114.73 558,-121.43"/>
</a>
</g>
</g>
<!-- Node7 -->
<g id="Node000007" class="node">
<title>Node7</title>
<g id="a_Node000007"><a xlink:href="Exporter3DModel_8cpp.html" target="_top" xlink:title=" ">
<polygon fill="white" stroke="#666666" points="811,-79.5 636,-79.5 636,-60.5 811,-60.5 811,-79.5"/>
<text text-anchor="middle" x="723.5" y="-67.5" font-family="Helvetica,sans-Serif" font-size="10.00">core/kicad/Exporter3DModel.cpp</text>
</a>
</g>
</g>
<!-- Node6&#45;&gt;Node7 -->
<g id="edge7_Node000006_Node000007" class="edge">
<title>Node6&#45;&gt;Node7</title>
<g id="a_edge7_Node000006_Node000007"><a xlink:title=" ">
<path fill="none" stroke="#63b8ff" d="M624.11,-116.78C648.62,-105.49 683.74,-89.31 705.01,-79.52"/>
<polygon fill="#63b8ff" stroke="#63b8ff" points="622.59,-113.63 614.97,-120.99 625.51,-119.99 622.59,-113.63"/>
</a>
</g>
</g>
<!-- Node8 -->
<g id="Node000008" class="node">
<title>Node8</title>
<g id="a_Node000008"><a xlink:href="Model3DExportStage_8cpp.html" target="_top" xlink:title=" ">
<polygon fill="white" stroke="#666666" points="999.5,-85 829.5,-85 829.5,-55 999.5,-55 999.5,-85"/>
<text text-anchor="start" x="837.5" y="-73" font-family="Helvetica,sans-Serif" font-size="10.00">services/export/Model3DExport</text>
<text text-anchor="middle" x="914.5" y="-62" font-family="Helvetica,sans-Serif" font-size="10.00">Stage.cpp</text>
</a>
</g>
</g>
<!-- Node6&#45;&gt;Node8 -->
<g id="edge9_Node000006_Node000008" class="edge">
<title>Node6&#45;&gt;Node8</title>
<g id="a_edge9_Node000006_Node000008"><a xlink:title=" ">
<path fill="none" stroke="#63b8ff" d="M652.71,-119.16C704.33,-109.66 781.24,-95.51 838.36,-85.01"/>
<polygon fill="#63b8ff" stroke="#63b8ff" points="651.94,-115.74 642.74,-120.99 653.21,-122.63 651.94,-115.74"/>
</a>
</g>
</g>
<!-- Node9 -->
<g id="Node000009" class="node">
<title>Node9</title>
<g id="a_Node000009"><a xlink:href="Model3DExportWorker_8cpp.html" target="_top" xlink:title=" ">
<polygon fill="white" stroke="#666666" points="1187.5,-85 1017.5,-85 1017.5,-55 1187.5,-55 1187.5,-85"/>
<text text-anchor="start" x="1025.5" y="-73" font-family="Helvetica,sans-Serif" font-size="10.00">services/export/Model3DExport</text>
<text text-anchor="middle" x="1102.5" y="-62" font-family="Helvetica,sans-Serif" font-size="10.00">Worker.cpp</text>
</a>
</g>
</g>
<!-- Node6&#45;&gt;Node9 -->
<g id="edge10_Node000006_Node000009" class="edge">
<title>Node6&#45;&gt;Node9</title>
<g id="a_edge10_Node000006_Node000009"><a xlink:title=" ">
<path fill="none" stroke="#63b8ff" d="M688.67,-120.62C772.25,-112.31 898.79,-99.09 1008.5,-85 1011.45,-84.62 1014.44,-84.23 1017.47,-83.82"/>
<polygon fill="#63b8ff" stroke="#63b8ff" points="688.3,-117.14 678.69,-121.61 688.99,-124.1 688.3,-117.14"/>
</a>
</g>
</g>
<!-- Node10 -->
<g id="Node000010" class="node">
<title>Node10</title>
<g id="a_Node000010"><a xlink:href="WriteWorker_8cpp.html" target="_top" xlink:title=" ">
<polygon fill="white" stroke="#666666" points="953,-19 816,-19 816,0 953,0 953,-19"/>
<text text-anchor="middle" x="884.5" y="-7" font-family="Helvetica,sans-Serif" font-size="10.00">workers/WriteWorker.cpp</text>
</a>
</g>
</g>
<!-- Node6&#45;&gt;Node10 -->
<g id="edge11_Node000006_Node000010" class="edge">
<title>Node6&#45;&gt;Node10</title>
<g id="a_edge11_Node000006_Node000010"><a xlink:title=" ">
<path fill="none" stroke="#63b8ff" d="M688.96,-129.4C848.74,-128.26 1162.75,-121.35 1196.5,-85 1205.57,-75.23 1205.24,-65.07 1196.5,-55 1165.67,-19.46 1035.42,-11.59 953.27,-10.25"/>
<polygon fill="#63b8ff" stroke="#63b8ff" points="688.64,-125.9 678.66,-129.47 688.69,-132.9 688.64,-125.9"/>
</a>
</g>
</g>
<!-- Node11 -->
<g id="Node000011" class="node">
<title>Node11</title>
<g id="a_Node000011"><a xlink:href="WriteWorker_8h.html" target="_top" xlink:title=" ">
<polygon fill="white" stroke="#666666" points="617.5,-79.5 491.5,-79.5 491.5,-60.5 617.5,-60.5 617.5,-79.5"/>
<text text-anchor="middle" x="554.5" y="-67.5" font-family="Helvetica,sans-Serif" font-size="10.00">workers/WriteWorker.h</text>
</a>
</g>
</g>
<!-- Node6&#45;&gt;Node11 -->
<g id="edge12_Node000006_Node000011" class="edge">
<title>Node6&#45;&gt;Node11</title>
<g id="a_edge12_Node000006_Node000011"><a xlink:title=" ">
<path fill="none" stroke="#63b8ff" d="M584.39,-112.63C576.65,-101.85 566.94,-88.32 560.72,-79.67"/>
<polygon fill="#63b8ff" stroke="#63b8ff" points="581.63,-114.79 590.3,-120.87 587.31,-110.7 581.63,-114.79"/>
</a>
</g>
</g>
<!-- Node11&#45;&gt;Node10 -->
<g id="edge13_Node000011_Node000010" class="edge">
<title>Node11&#45;&gt;Node10</title>
<g id="a_edge13_Node000011_Node000010"><a xlink:title=" ">
<path fill="none" stroke="#63b8ff" d="M608.47,-58.54C614.88,-57.33 621.33,-56.12 627.5,-55 699,-41.96 781.86,-27.78 833.74,-19.01"/>
<polygon fill="#63b8ff" stroke="#63b8ff" points="607.65,-55.13 598.48,-60.43 608.96,-62.01 607.65,-55.13"/>
</a>
</g>
</g>
</g>
</svg>
