<?xml version="1.0" encoding="UTF-8" standalone="no"?>
<!DOCTYPE svg PUBLIC "-//W3C//DTD SVG 1.1//EN"
 "http://www.w3.org/Graphics/SVG/1.1/DTD/svg11.dtd">
<!-- Generated by graphviz version 2.43.0 (0)
 -->
<!-- Title: core/interfaces/ISymbolExporter.h Pages: 1 -->
<svg width="474pt" height="192pt"
 viewBox="0.00 0.00 474.00 192.00" xmlns="http://www.w3.org/2000/svg" xmlns:xlink="http://www.w3.org/1999/xlink">
<g id="graph0" class="graph" transform="scale(1 1) rotate(0) translate(4 188)">
<title>core/interfaces/ISymbolExporter.h</title>
<!-- Node1 -->
<g id="Node000001" class="node">
<title>Node1</title>
<g id="a_Node000001"><a xlink:title=" ">
<polygon fill="#999999" stroke="#666666" points="466,-184 284,-184 284,-165 466,-165 466,-184"/>
<text text-anchor="middle" x="375" y="-172" font-family="Helvetica,sans-Serif" font-size="10.00">core/interfaces/ISymbolExporter.h</text>
</a>
</g>
</g>
<!-- Node2 -->
<g id="Node000002" class="node">
<title>Node2</title>
<g id="a_Node000002"><a xlink:href="SymbolIR_8h.html" target="_top" xlink:title="原理图符号的通用中间表示">
<polygon fill="white" stroke="#666666" points="257,-129 151,-129 151,-110 257,-110 257,-129"/>
<text text-anchor="middle" x="204" y="-117" font-family="Helvetica,sans-Serif" font-size="10.00">core/ir/SymbolIR.h</text>
</a>
</g>
</g>
<!-- Node1&#45;&gt;Node2 -->
<g id="edge1_Node000001_Node000002" class="edge">
<title>Node1&#45;&gt;Node2</title>
<g id="a_edge1_Node000001_Node000002"><a xlink:title=" ">
<path fill="none" stroke="#63b8ff" d="M347.53,-164.98C318.82,-156.09 273.58,-142.07 241.58,-132.15"/>
<polygon fill="#63b8ff" stroke="#63b8ff" points="242.28,-128.7 231.69,-129.08 240.2,-135.39 242.28,-128.7"/>
</a>
</g>
</g>
<!-- Node5 -->
<g id="Node000005" class="node">
<title>Node5</title>
<g id="a_Node000005"><a xlink:title=" ">
<polygon fill="#e0e0e0" stroke="#999999" points="145.5,-19 92.5,-19 92.5,0 145.5,0 145.5,-19"/>
<text text-anchor="middle" x="119" y="-7" font-family="Helvetica,sans-Serif" font-size="10.00">QString</text>
</a>
</g>
</g>
<!-- Node1&#45;&gt;Node5 -->
<g id="edge12_Node000001_Node000005" class="edge">
<title>Node1&#45;&gt;Node5</title>
<g id="a_edge12_Node000001_Node000005"><a xlink:title=" ">
<path fill="none" stroke="#63b8ff" d="M381.7,-164.89C397.39,-143.61 433.16,-87.88 405,-55 373.37,-18.06 226.06,-11.54 156.09,-10.56"/>
<polygon fill="#63b8ff" stroke="#63b8ff" points="155.99,-7.06 145.96,-10.45 155.92,-14.06 155.99,-7.06"/>
</a>
</g>
</g>
<!-- Node6 -->
<g id="Node000006" class="node">
<title>Node6</title>
<g id="a_Node000006"><a xlink:title=" ">
<polygon fill="#e0e0e0" stroke="#999999" points="395.5,-74 354.5,-74 354.5,-55 395.5,-55 395.5,-74"/>
<text text-anchor="middle" x="375" y="-62" font-family="Helvetica,sans-Serif" font-size="10.00">QList</text>
</a>
</g>
</g>
<!-- Node1&#45;&gt;Node6 -->
<g id="edge11_Node000001_Node000006" class="edge">
<title>Node1&#45;&gt;Node6</title>
<g id="a_edge11_Node000001_Node000006"><a xlink:title=" ">
<path fill="none" stroke="#63b8ff" d="M375,-164.66C375,-147.17 375,-107.8 375,-84.27"/>
<polygon fill="#63b8ff" stroke="#63b8ff" points="378.5,-84.16 375,-74.16 371.5,-84.16 378.5,-84.16"/>
</a>
</g>
</g>
<!-- Node3 -->
<g id="Node000003" class="node">
<title>Node3</title>
<g id="a_Node000003"><a xlink:href="IRTypes_8h.html" target="_top" xlink:title="EDA 无关的通用枚举和类型定义">
<polygon fill="white" stroke="#666666" points="91,-74 29,-74 29,-55 91,-55 91,-74"/>
<text text-anchor="middle" x="60" y="-62" font-family="Helvetica,sans-Serif" font-size="10.00">IRTypes.h</text>
</a>
</g>
</g>
<!-- Node2&#45;&gt;Node3 -->
<g id="edge2_Node000002_Node000003" class="edge">
<title>Node2&#45;&gt;Node3</title>
<g id="a_edge2_Node000002_Node000003"><a xlink:title=" ">
<path fill="none" stroke="#63b8ff" d="M180.86,-109.98C157.18,-101.27 120.13,-87.63 93.29,-77.75"/>
<polygon fill="#63b8ff" stroke="#63b8ff" points="94.15,-74.34 83.56,-74.17 91.73,-80.91 94.15,-74.34"/>
</a>
</g>
</g>
<!-- Node4 -->
<g id="Node000004" class="node">
<title>Node4</title>
<g id="a_Node000004"><a xlink:title=" ">
<polygon fill="#e0e0e0" stroke="#999999" points="50,-19 0,-19 0,0 50,0 50,-19"/>
<text text-anchor="middle" x="25" y="-7" font-family="Helvetica,sans-Serif" font-size="10.00">QColor</text>
</a>
</g>
</g>
<!-- Node2&#45;&gt;Node4 -->
<g id="edge5_Node000002_Node000004" class="edge">
<title>Node2&#45;&gt;Node4</title>
<g id="a_edge5_Node000002_Node000004"><a xlink:title=" ">
<path fill="none" stroke="#63b8ff" d="M150.81,-112.9C102.38,-106.57 36.06,-94.4 20,-74 10.08,-61.4 13.01,-42.69 17.4,-28.85"/>
<polygon fill="#63b8ff" stroke="#63b8ff" points="20.72,-29.98 20.87,-19.39 14.14,-27.57 20.72,-29.98"/>
</a>
</g>
</g>
<!-- Node2&#45;&gt;Node5 -->
<g id="edge10_Node000002_Node000005" class="edge">
<title>Node2&#45;&gt;Node5</title>
<g id="a_edge10_Node000002_Node000005"><a xlink:title=" ">
<path fill="none" stroke="#63b8ff" d="M184.54,-109.92C169.74,-102.44 149.95,-90.25 138,-74 128.31,-60.82 123.52,-42.69 121.18,-29.18"/>
<polygon fill="#63b8ff" stroke="#63b8ff" points="124.62,-28.52 119.73,-19.12 117.69,-29.52 124.62,-28.52"/>
</a>
</g>
</g>
<!-- Node2&#45;&gt;Node6 -->
<g id="edge6_Node000002_Node000006" class="edge">
<title>Node2&#45;&gt;Node6</title>
<g id="a_edge6_Node000002_Node000006"><a xlink:title=" ">
<path fill="none" stroke="#63b8ff" d="M231.47,-109.98C262.4,-100.4 312.5,-84.87 344.58,-74.93"/>
<polygon fill="#63b8ff" stroke="#63b8ff" points="345.8,-78.21 354.32,-71.91 343.73,-71.53 345.8,-78.21"/>
</a>
</g>
</g>
<!-- Node7 -->
<g id="Node000007" class="node">
<title>Node7</title>
<g id="a_Node000007"><a xlink:title=" ">
<polygon fill="#e0e0e0" stroke="#999999" points="192.5,-74 147.5,-74 147.5,-55 192.5,-55 192.5,-74"/>
<text text-anchor="middle" x="170" y="-62" font-family="Helvetica,sans-Serif" font-size="10.00">QMap</text>
</a>
</g>
</g>
<!-- Node2&#45;&gt;Node7 -->
<g id="edge7_Node000002_Node000007" class="edge">
<title>Node2&#45;&gt;Node7</title>
<g id="a_edge7_Node000002_Node000007"><a xlink:title=" ">
<path fill="none" stroke="#63b8ff" d="M198.39,-109.75C193.68,-102.42 186.83,-91.73 181.03,-82.7"/>
<polygon fill="#63b8ff" stroke="#63b8ff" points="183.86,-80.62 175.51,-74.09 177.96,-84.4 183.86,-80.62"/>
</a>
</g>
</g>
<!-- Node8 -->
<g id="Node000008" class="node">
<title>Node8</title>
<g id="a_Node000008"><a xlink:title=" ">
<polygon fill="#e0e0e0" stroke="#999999" points="265.5,-74 210.5,-74 210.5,-55 265.5,-55 265.5,-74"/>
<text text-anchor="middle" x="238" y="-62" font-family="Helvetica,sans-Serif" font-size="10.00">QPointF</text>
</a>
</g>
</g>
<!-- Node2&#45;&gt;Node8 -->
<g id="edge8_Node000002_Node000008" class="edge">
<title>Node2&#45;&gt;Node8</title>
<g id="a_edge8_Node000002_Node000008"><a xlink:title=" ">
<path fill="none" stroke="#63b8ff" d="M209.61,-109.75C214.32,-102.42 221.17,-91.73 226.97,-82.7"/>
<polygon fill="#63b8ff" stroke="#63b8ff" points="230.04,-84.4 232.49,-74.09 224.14,-80.62 230.04,-84.4"/>
</a>
</g>
</g>
<!-- Node9 -->
<g id="Node000009" class="node">
<title>Node9</title>
<g id="a_Node000009"><a xlink:title=" ">
<polygon fill="#e0e0e0" stroke="#999999" points="336,-74 284,-74 284,-55 336,-55 336,-74"/>
<text text-anchor="middle" x="310" y="-62" font-family="Helvetica,sans-Serif" font-size="10.00">QRectF</text>
</a>
</g>
</g>
<!-- Node2&#45;&gt;Node9 -->
<g id="edge9_Node000002_Node000009" class="edge">
<title>Node2&#45;&gt;Node9</title>
<g id="a_edge9_Node000002_Node000009"><a xlink:title=" ">
<path fill="none" stroke="#63b8ff" d="M221.03,-109.98C237.93,-101.54 264.06,-88.47 283.64,-78.68"/>
<polygon fill="#63b8ff" stroke="#63b8ff" points="285.28,-81.77 292.66,-74.17 282.15,-75.51 285.28,-81.77"/>
</a>
</g>
</g>
<!-- Node3&#45;&gt;Node4 -->
<g id="edge3_Node000003_Node000004" class="edge">
<title>Node3&#45;&gt;Node4</title>
<g id="a_edge3_Node000003_Node000004"><a xlink:title=" ">
<path fill="none" stroke="#63b8ff" d="M54.22,-54.75C49.38,-47.42 42.32,-36.73 36.36,-27.7"/>
<polygon fill="#63b8ff" stroke="#63b8ff" points="39.1,-25.5 30.67,-19.09 33.26,-29.36 39.1,-25.5"/>
</a>
</g>
</g>
<!-- Node3&#45;&gt;Node5 -->
<g id="edge4_Node000003_Node000005" class="edge">
<title>Node3&#45;&gt;Node5</title>
<g id="a_edge4_Node000003_Node000005"><a xlink:title=" ">
<path fill="none" stroke="#63b8ff" d="M69.48,-54.98C78.2,-47.15 91.34,-35.34 101.9,-25.86"/>
<polygon fill="#63b8ff" stroke="#63b8ff" points="104.25,-28.46 109.35,-19.17 99.57,-23.25 104.25,-28.46"/>
</a>
</g>
</g>
</g>
</svg>
