<?xml version="1.0" encoding="UTF-8" standalone="no"?>
<!DOCTYPE svg PUBLIC "-//W3C//DTD SVG 1.1//EN"
 "http://www.w3.org/Graphics/SVG/1.1/DTD/svg11.dtd">
<!-- Generated by graphviz version 2.43.0 (0)
 -->
<!-- Title: EasyKiConverter::AltiumSchRectangle Pages: 1 -->
<svg width="155pt" height="188pt"
 viewBox="0.00 0.00 155.00 188.00" xmlns="http://www.w3.org/2000/svg" xmlns:xlink="http://www.w3.org/1999/xlink">
<g id="graph0" class="graph" transform="scale(1 1) rotate(0) translate(4 184)">
<title>EasyKiConverter::AltiumSchRectangle</title>
<!-- Node1 -->
<g id="Node000001" class="node">
<title>Node1</title>
<g id="a_Node000001"><a xlink:title="Altium 符号矩形">
<polygon fill="#999999" stroke="transparent" points="147,-180 0,-180 0,0 147,0 147,-180"/>
<text text-anchor="start" x="5.5" y="-168" font-family="Helvetica,sans-Serif" font-size="10.00">EasyKiConverter::AltiumSch</text>
<text text-anchor="start" x="49.5" y="-157" font-family="Helvetica,sans-Serif" font-size="10.00">Rectangle</text>
<text text-anchor="start" x="21.5" y="-142" font-family="Helvetica,sans-Serif" font-size="10.00">+</text>
<text text-anchor="start" x="51.5" y="-142" font-family="Helvetica,sans-Serif" font-size="10.00">locationX</text>
<text text-anchor="start" x="21.5" y="-127" font-family="Helvetica,sans-Serif" font-size="10.00">+</text>
<text text-anchor="start" x="51.5" y="-127" font-family="Helvetica,sans-Serif" font-size="10.00">locationY</text>
<text text-anchor="start" x="21.5" y="-112" font-family="Helvetica,sans-Serif" font-size="10.00">+</text>
<text text-anchor="start" x="51.5" y="-112" font-family="Helvetica,sans-Serif" font-size="10.00">cornerX</text>
<text text-anchor="start" x="21.5" y="-97" font-family="Helvetica,sans-Serif" font-size="10.00">+</text>
<text text-anchor="start" x="51.5" y="-97" font-family="Helvetica,sans-Serif" font-size="10.00">cornerY</text>
<text text-anchor="start" x="21.5" y="-82" font-family="Helvetica,sans-Serif" font-size="10.00">+</text>
<text text-anchor="start" x="51.5" y="-82" font-family="Helvetica,sans-Serif" font-size="10.00">lineWidth</text>
<text text-anchor="start" x="21.5" y="-67" font-family="Helvetica,sans-Serif" font-size="10.00">+</text>
<text text-anchor="start" x="51.5" y="-67" font-family="Helvetica,sans-Serif" font-size="10.00">color</text>
<text text-anchor="start" x="21.5" y="-52" font-family="Helvetica,sans-Serif" font-size="10.00">+</text>
<text text-anchor="start" x="51.5" y="-52" font-family="Helvetica,sans-Serif" font-size="10.00">areaColor</text>
<text text-anchor="start" x="21.5" y="-37" font-family="Helvetica,sans-Serif" font-size="10.00">+</text>
<text text-anchor="start" x="51.5" y="-37" font-family="Helvetica,sans-Serif" font-size="10.00">isSolid</text>
<text text-anchor="start" x="21.5" y="-22" font-family="Helvetica,sans-Serif" font-size="10.00">+</text>
<text text-anchor="start" x="51.5" y="-22" font-family="Helvetica,sans-Serif" font-size="10.00">ownerPartId</text>
<text text-anchor="start" x="72" y="-7" font-family="Helvetica,sans-Serif" font-size="10.00"> </text>
<polygon fill="#666666" stroke="#666666" points="0.5,-152 0.5,-152 147.5,-152 147.5,-152 0.5,-152"/>
<polygon fill="#666666" stroke="#666666" points="0.5,-17 0.5,-17 49.5,-17 49.5,-17 0.5,-17"/>
<polygon fill="#666666" stroke="#666666" points="49.5,-17 49.5,-17 147.5,-17 147.5,-17 49.5,-17"/>
<polygon fill="none" stroke="#666666" points="0,0 0,-180 147,-180 147,0 0,0"/>
</a>
</g>
</g>
</g>
</svg>
