<?xml version="1.0" encoding="UTF-8" standalone="no"?>
<!DOCTYPE svg PUBLIC "-//W3C//DTD SVG 1.1//EN"
 "http://www.w3.org/Graphics/SVG/1.1/DTD/svg11.dtd">
<!-- Generated by graphviz version 2.43.0 (0)
 -->
<!-- Title: EasyKiConverter::SymbolPin Pages: 1 -->
<svg width="1062pt" height="280pt"
 viewBox="0.00 0.00 1062.00 280.00" xmlns="http://www.w3.org/2000/svg" xmlns:xlink="http://www.w3.org/1999/xlink">
<g id="graph0" class="graph" transform="scale(1 1) rotate(0) translate(4 276)">
<title>EasyKiConverter::SymbolPin</title>
<!-- Node1 -->
<g id="Node000001" class="node">
<title>Node1</title>
<g id="a_Node000001"><a xlink:title="引脚">
<polygon fill="#999999" stroke="transparent" points="608,-49 459,-49 459,0 608,0 608,-49"/>
<text text-anchor="start" x="464.5" y="-36.5" font-family="Helvetica,sans-Serif" font-size="10.00">EasyKiConverter::SymbolPin</text>
<text text-anchor="start" x="532" y="-21.5" font-family="Helvetica,sans-Serif" font-size="10.00"> </text>
<text text-anchor="start" x="532" y="-6.5" font-family="Helvetica,sans-Serif" font-size="10.00"> </text>
<polygon fill="#666666" stroke="#666666" points="459.5,-31.5 459.5,-31.5 608.5,-31.5 608.5,-31.5 459.5,-31.5"/>
<polygon fill="#666666" stroke="#666666" points="459.5,-16.5 459.5,-16.5 608.5,-16.5 608.5,-16.5 459.5,-16.5"/>
<polygon fill="none" stroke="#666666" points="459,0 459,-49 608,-49 608,0 459,0"/>
</a>
</g>
</g>
<!-- Node2 -->
<g id="Node000002" class="node">
<title>Node2</title>
<g id="a_Node000002"><a xlink:href="structEasyKiConverter_1_1SymbolPinSettings.html" target="_top" xlink:title="引脚设置">
<polygon fill="white" stroke="transparent" points="149,-272 0,-272 0,-107 149,-107 149,-272"/>
<text text-anchor="start" x="5.5" y="-259.5" font-family="Helvetica,sans-Serif" font-size="10.00">EasyKiConverter::SymbolPin</text>
<text text-anchor="start" x="55" y="-248.5" font-family="Helvetica,sans-Serif" font-size="10.00">Settings</text>
<text text-anchor="start" x="16.5" y="-233.5" font-family="Helvetica,sans-Serif" font-size="10.00">+</text>
<text text-anchor="start" x="41.5" y="-233.5" font-family="Helvetica,sans-Serif" font-size="10.00">isDisplayed</text>
<text text-anchor="start" x="16.5" y="-218.5" font-family="Helvetica,sans-Serif" font-size="10.00">+</text>
<text text-anchor="start" x="41.5" y="-218.5" font-family="Helvetica,sans-Serif" font-size="10.00">type</text>
<text text-anchor="start" x="16.5" y="-203.5" font-family="Helvetica,sans-Serif" font-size="10.00">+</text>
<text text-anchor="start" x="41.5" y="-203.5" font-family="Helvetica,sans-Serif" font-size="10.00">spicePinNumber</text>
<text text-anchor="start" x="16.5" y="-188.5" font-family="Helvetica,sans-Serif" font-size="10.00">+</text>
<text text-anchor="start" x="41.5" y="-188.5" font-family="Helvetica,sans-Serif" font-size="10.00">posX</text>
<text text-anchor="start" x="16.5" y="-173.5" font-family="Helvetica,sans-Serif" font-size="10.00">+</text>
<text text-anchor="start" x="41.5" y="-173.5" font-family="Helvetica,sans-Serif" font-size="10.00">posY</text>
<text text-anchor="start" x="16.5" y="-158.5" font-family="Helvetica,sans-Serif" font-size="10.00">+</text>
<text text-anchor="start" x="41.5" y="-158.5" font-family="Helvetica,sans-Serif" font-size="10.00">rotation</text>
<text text-anchor="start" x="16.5" y="-143.5" font-family="Helvetica,sans-Serif" font-size="10.00">+</text>
<text text-anchor="start" x="41.5" y="-143.5" font-family="Helvetica,sans-Serif" font-size="10.00">id</text>
<text text-anchor="start" x="16.5" y="-128.5" font-family="Helvetica,sans-Serif" font-size="10.00">+</text>
<text text-anchor="start" x="41.5" y="-128.5" font-family="Helvetica,sans-Serif" font-size="10.00">isLocked</text>
<text text-anchor="start" x="73" y="-113.5" font-family="Helvetica,sans-Serif" font-size="10.00"> </text>
<polygon fill="#666666" stroke="#666666" points="0.5,-243.5 0.5,-243.5 149.5,-243.5 149.5,-243.5 0.5,-243.5"/>
<polygon fill="#666666" stroke="#666666" points="0.5,-123.5 0.5,-123.5 39.5,-123.5 39.5,-123.5 0.5,-123.5"/>
<polygon fill="#666666" stroke="#666666" points="39.5,-123.5 39.5,-123.5 149.5,-123.5 149.5,-123.5 39.5,-123.5"/>
<polygon fill="none" stroke="#666666" points="0,-107 0,-272 149,-272 149,-107 0,-107"/>
</a>
</g>
</g>
<!-- Node2&#45;&gt;Node1 -->
<g id="edge1_Node000001_Node000002" class="edge">
<title>Node2&#45;&gt;Node1</title>
<g id="a_edge1_Node000001_Node000002"><a xlink:title=" ">
<path fill="none" stroke="#63b8ff" d="M149.12,-112.05C151.88,-110.26 154.67,-108.57 157.5,-107 248.01,-56.8 366.72,-37.51 446.32,-30.11"/>
<polygon fill="none" stroke="#63b8ff" points="446.79,-30.06 452.42,-25.56 458.75,-29.02 453.12,-33.53 446.79,-30.06"/>
</a>
</g>
<text text-anchor="middle" x="270" y="-75.5" font-family="Helvetica,sans-Serif" font-size="10.00" fill="grey"> +settings</text>
</g>
<!-- Node3 -->
<g id="Node000003" class="node">
<title>Node3</title>
<g id="a_Node000003"><a xlink:href="structEasyKiConverter_1_1SymbolPinDot.html" target="_top" xlink:title="引脚">
<polygon fill="white" stroke="transparent" points="334,-221.5 167,-221.5 167,-157.5 334,-157.5 334,-221.5"/>
<text text-anchor="start" x="172.5" y="-209.5" font-family="Helvetica,sans-Serif" font-size="10.00">EasyKiConverter::SymbolPinDot</text>
<text text-anchor="start" x="202" y="-194.5" font-family="Helvetica,sans-Serif" font-size="10.00">+</text>
<text text-anchor="start" x="245.5" y="-194.5" font-family="Helvetica,sans-Serif" font-size="10.00">dotX</text>
<text text-anchor="start" x="202" y="-179.5" font-family="Helvetica,sans-Serif" font-size="10.00">+</text>
<text text-anchor="start" x="245.5" y="-179.5" font-family="Helvetica,sans-Serif" font-size="10.00">dotY</text>
<text text-anchor="start" x="249" y="-164.5" font-family="Helvetica,sans-Serif" font-size="10.00"> </text>
<polygon fill="#666666" stroke="#666666" points="167.5,-204.5 167.5,-204.5 334.5,-204.5 334.5,-204.5 167.5,-204.5"/>
<polygon fill="#666666" stroke="#666666" points="167.5,-174.5 167.5,-174.5 243.5,-174.5 243.5,-174.5 167.5,-174.5"/>
<polygon fill="#666666" stroke="#666666" points="243.5,-174.5 243.5,-174.5 334.5,-174.5 334.5,-174.5 243.5,-174.5"/>
<polygon fill="none" stroke="#666666" points="167,-157.5 167,-221.5 334,-221.5 334,-157.5 167,-157.5"/>
</a>
</g>
</g>
<!-- Node3&#45;&gt;Node1 -->
<g id="edge2_Node000001_Node000003" class="edge">
<title>Node3&#45;&gt;Node1</title>
<g id="a_edge2_Node000001_Node000003"><a xlink:title=" ">
<path fill="none" stroke="#63b8ff" d="M281.22,-157.16C298.46,-140.76 320.98,-121.19 343.5,-107 377.46,-85.59 418.02,-67.33 452.93,-53.56"/>
<polygon fill="none" stroke="#63b8ff" points="453.34,-53.4 457.49,-47.5 464.53,-49.06 460.38,-54.96 453.34,-53.4"/>
</a>
</g>
<text text-anchor="middle" x="441.5" y="-75.5" font-family="Helvetica,sans-Serif" font-size="10.00" fill="grey"> +pinDot</text>
</g>
<!-- Node4 -->
<g id="Node000004" class="node">
<title>Node4</title>
<g id="a_Node000004"><a xlink:href="structEasyKiConverter_1_1SymbolPinPath.html" target="_top" xlink:title="引脚路径">
<polygon fill="white" stroke="transparent" points="522.5,-221.5 352.5,-221.5 352.5,-157.5 522.5,-157.5 522.5,-221.5"/>
<text text-anchor="start" x="357.5" y="-209.5" font-family="Helvetica,sans-Serif" font-size="10.00">EasyKiConverter::SymbolPinPath</text>
<text text-anchor="start" x="387.5" y="-194.5" font-family="Helvetica,sans-Serif" font-size="10.00">+</text>
<text text-anchor="start" x="431.5" y="-194.5" font-family="Helvetica,sans-Serif" font-size="10.00">path</text>
<text text-anchor="start" x="387.5" y="-179.5" font-family="Helvetica,sans-Serif" font-size="10.00">+</text>
<text text-anchor="start" x="431.5" y="-179.5" font-family="Helvetica,sans-Serif" font-size="10.00">color</text>
<text text-anchor="start" x="435.5" y="-164.5" font-family="Helvetica,sans-Serif" font-size="10.00"> </text>
<polygon fill="#666666" stroke="#666666" points="352.5,-204.5 352.5,-204.5 522.5,-204.5 522.5,-204.5 352.5,-204.5"/>
<polygon fill="#666666" stroke="#666666" points="352.5,-174.5 352.5,-174.5 429.5,-174.5 429.5,-174.5 352.5,-174.5"/>
<polygon fill="#666666" stroke="#666666" points="429.5,-174.5 429.5,-174.5 522.5,-174.5 522.5,-174.5 429.5,-174.5"/>
<polygon fill="none" stroke="#666666" points="352.5,-157.5 352.5,-221.5 522.5,-221.5 522.5,-157.5 352.5,-157.5"/>
</a>
</g>
</g>
<!-- Node4&#45;&gt;Node1 -->
<g id="edge3_Node000001_Node000004" class="edge">
<title>Node4&#45;&gt;Node1</title>
<g id="a_edge3_Node000001_Node000004"><a xlink:title=" ">
<path fill="none" stroke="#63b8ff" d="M455.78,-157.46C472.28,-129.45 496.5,-88.32 513.51,-59.45"/>
<polygon fill="none" stroke="#63b8ff" points="513.55,-59.37 513.15,-52.17 519.64,-49.03 520.04,-56.23 513.55,-59.37"/>
</a>
</g>
<text text-anchor="middle" x="532.5" y="-75.5" font-family="Helvetica,sans-Serif" font-size="10.00" fill="grey"> +pinPath</text>
</g>
<!-- Node5 -->
<g id="Node000005" class="node">
<title>Node5</title>
<g id="a_Node000005"><a xlink:href="structEasyKiConverter_1_1SymbolPinName.html" target="_top" xlink:title="引脚名称">
<polygon fill="white" stroke="transparent" points="720,-266.5 541,-266.5 541,-112.5 720,-112.5 720,-266.5"/>
<text text-anchor="start" x="546.5" y="-254.5" font-family="Helvetica,sans-Serif" font-size="10.00">EasyKiConverter::SymbolPinName</text>
<text text-anchor="start" x="570.5" y="-239.5" font-family="Helvetica,sans-Serif" font-size="10.00">+</text>
<text text-anchor="start" x="608.5" y="-239.5" font-family="Helvetica,sans-Serif" font-size="10.00">isDisplayed</text>
<text text-anchor="start" x="570.5" y="-224.5" font-family="Helvetica,sans-Serif" font-size="10.00">+</text>
<text text-anchor="start" x="608.5" y="-224.5" font-family="Helvetica,sans-Serif" font-size="10.00">posX</text>
<text text-anchor="start" x="570.5" y="-209.5" font-family="Helvetica,sans-Serif" font-size="10.00">+</text>
<text text-anchor="start" x="608.5" y="-209.5" font-family="Helvetica,sans-Serif" font-size="10.00">posY</text>
<text text-anchor="start" x="570.5" y="-194.5" font-family="Helvetica,sans-Serif" font-size="10.00">+</text>
<text text-anchor="start" x="608.5" y="-194.5" font-family="Helvetica,sans-Serif" font-size="10.00">rotation</text>
<text text-anchor="start" x="570.5" y="-179.5" font-family="Helvetica,sans-Serif" font-size="10.00">+</text>
<text text-anchor="start" x="608.5" y="-179.5" font-family="Helvetica,sans-Serif" font-size="10.00">text</text>
<text text-anchor="start" x="570.5" y="-164.5" font-family="Helvetica,sans-Serif" font-size="10.00">+</text>
<text text-anchor="start" x="608.5" y="-164.5" font-family="Helvetica,sans-Serif" font-size="10.00">textAnchor</text>
<text text-anchor="start" x="570.5" y="-149.5" font-family="Helvetica,sans-Serif" font-size="10.00">+</text>
<text text-anchor="start" x="608.5" y="-149.5" font-family="Helvetica,sans-Serif" font-size="10.00">font</text>
<text text-anchor="start" x="570.5" y="-134.5" font-family="Helvetica,sans-Serif" font-size="10.00">+</text>
<text text-anchor="start" x="608.5" y="-134.5" font-family="Helvetica,sans-Serif" font-size="10.00">fontSize</text>
<text text-anchor="start" x="629" y="-119.5" font-family="Helvetica,sans-Serif" font-size="10.00"> </text>
<polygon fill="#666666" stroke="#666666" points="541.5,-249.5 541.5,-249.5 720.5,-249.5 720.5,-249.5 541.5,-249.5"/>
<polygon fill="#666666" stroke="#666666" points="541.5,-129.5 541.5,-129.5 606.5,-129.5 606.5,-129.5 541.5,-129.5"/>
<polygon fill="#666666" stroke="#666666" points="606.5,-129.5 606.5,-129.5 720.5,-129.5 720.5,-129.5 606.5,-129.5"/>
<polygon fill="none" stroke="#666666" points="541,-112.5 541,-266.5 720,-266.5 720,-112.5 541,-112.5"/>
</a>
</g>
</g>
<!-- Node5&#45;&gt;Node1 -->
<g id="edge4_Node000001_Node000005" class="edge">
<title>Node5&#45;&gt;Node1</title>
<g id="a_edge4_Node000001_Node000005"><a xlink:title=" ">
<path fill="none" stroke="#63b8ff" d="M587.44,-112.3C578.67,-97.2 569.4,-81.53 560.5,-67 558.98,-64.53 557.4,-61.98 555.79,-59.43"/>
<polygon fill="none" stroke="#63b8ff" points="555.62,-59.17 549.01,-56.27 549.14,-49.06 555.75,-51.96 555.62,-59.17"/>
</a>
</g>
<text text-anchor="middle" x="595.5" y="-81" font-family="Helvetica,sans-Serif" font-size="10.00" fill="grey"> +name</text>
<text text-anchor="middle" x="595.5" y="-70" font-family="Helvetica,sans-Serif" font-size="10.00" fill="grey">+number</text>
</g>
<!-- Node6 -->
<g id="Node000006" class="node">
<title>Node6</title>
<g id="a_Node000006"><a xlink:href="structEasyKiConverter_1_1SymbolPinDotBis.html" target="_top" xlink:title="引脚圆点（第二个">
<polygon fill="white" stroke="transparent" points="887,-234.5 738,-234.5 738,-144.5 887,-144.5 887,-234.5"/>
<text text-anchor="start" x="743.5" y="-222.5" font-family="Helvetica,sans-Serif" font-size="10.00">EasyKiConverter::SymbolPin</text>
<text text-anchor="start" x="796.5" y="-211.5" font-family="Helvetica,sans-Serif" font-size="10.00">DotBis</text>
<text text-anchor="start" x="760" y="-196.5" font-family="Helvetica,sans-Serif" font-size="10.00">+</text>
<text text-anchor="start" x="790.5" y="-196.5" font-family="Helvetica,sans-Serif" font-size="10.00">isDisplayed</text>
<text text-anchor="start" x="760" y="-181.5" font-family="Helvetica,sans-Serif" font-size="10.00">+</text>
<text text-anchor="start" x="790.5" y="-181.5" font-family="Helvetica,sans-Serif" font-size="10.00">circleX</text>
<text text-anchor="start" x="760" y="-166.5" font-family="Helvetica,sans-Serif" font-size="10.00">+</text>
<text text-anchor="start" x="790.5" y="-166.5" font-family="Helvetica,sans-Serif" font-size="10.00">circleY</text>
<text text-anchor="start" x="811" y="-151.5" font-family="Helvetica,sans-Serif" font-size="10.00"> </text>
<polygon fill="#666666" stroke="#666666" points="738.5,-206.5 738.5,-206.5 887.5,-206.5 887.5,-206.5 738.5,-206.5"/>
<polygon fill="#666666" stroke="#666666" points="738.5,-161.5 738.5,-161.5 788.5,-161.5 788.5,-161.5 738.5,-161.5"/>
<polygon fill="#666666" stroke="#666666" points="788.5,-161.5 788.5,-161.5 887.5,-161.5 887.5,-161.5 788.5,-161.5"/>
<polygon fill="none" stroke="#666666" points="738,-144.5 738,-234.5 887,-234.5 887,-144.5 738,-144.5"/>
</a>
</g>
</g>
<!-- Node6&#45;&gt;Node1 -->
<g id="edge5_Node000001_Node000006" class="edge">
<title>Node6&#45;&gt;Node1</title>
<g id="a_edge5_Node000001_Node000006"><a xlink:title=" ">
<path fill="none" stroke="#63b8ff" d="M773.87,-144.49C760.72,-131.26 745.32,-117.49 729.5,-107 695.82,-84.68 655.04,-66.53 619.42,-53.08"/>
<polygon fill="none" stroke="#63b8ff" points="619.3,-53.03 612.29,-54.7 608.05,-48.87 615.06,-47.2 619.3,-53.03"/>
</a>
</g>
<text text-anchor="middle" x="708.5" y="-75.5" font-family="Helvetica,sans-Serif" font-size="10.00" fill="grey"> +dot</text>
</g>
<!-- Node7 -->
<g id="Node000007" class="node">
<title>Node7</title>
<g id="a_Node000007"><a xlink:href="structEasyKiConverter_1_1SymbolPinClock.html" target="_top" xlink:title="引脚时钟">
<polygon fill="white" stroke="transparent" points="1054,-227 905,-227 905,-152 1054,-152 1054,-227"/>
<text text-anchor="start" x="910.5" y="-214.5" font-family="Helvetica,sans-Serif" font-size="10.00">EasyKiConverter::SymbolPin</text>
<text text-anchor="start" x="966" y="-203.5" font-family="Helvetica,sans-Serif" font-size="10.00">Clock</text>
<text text-anchor="start" x="927" y="-188.5" font-family="Helvetica,sans-Serif" font-size="10.00">+</text>
<text text-anchor="start" x="957.5" y="-188.5" font-family="Helvetica,sans-Serif" font-size="10.00">isDisplayed</text>
<text text-anchor="start" x="927" y="-173.5" font-family="Helvetica,sans-Serif" font-size="10.00">+</text>
<text text-anchor="start" x="957.5" y="-173.5" font-family="Helvetica,sans-Serif" font-size="10.00">path</text>
<text text-anchor="start" x="978" y="-158.5" font-family="Helvetica,sans-Serif" font-size="10.00"> </text>
<polygon fill="#666666" stroke="#666666" points="905.5,-198.5 905.5,-198.5 1054.5,-198.5 1054.5,-198.5 905.5,-198.5"/>
<polygon fill="#666666" stroke="#666666" points="905.5,-168.5 905.5,-168.5 955.5,-168.5 955.5,-168.5 905.5,-168.5"/>
<polygon fill="#666666" stroke="#666666" points="955.5,-168.5 955.5,-168.5 1054.5,-168.5 1054.5,-168.5 955.5,-168.5"/>
<polygon fill="none" stroke="#666666" points="905,-152 905,-227 1054,-227 1054,-152 905,-152"/>
</a>
</g>
</g>
<!-- Node7&#45;&gt;Node1 -->
<g id="edge6_Node000001_Node000007" class="edge">
<title>Node7&#45;&gt;Node1</title>
<g id="a_edge6_Node000001_Node000007"><a xlink:title=" ">
<path fill="none" stroke="#63b8ff" d="M950.21,-151.76C935.66,-135.79 916.84,-118.21 896.5,-107 809.78,-59.21 696.75,-39.43 620.02,-31.25"/>
<polygon fill="none" stroke="#63b8ff" points="619.97,-31.25 613.59,-34.62 608.03,-30.04 614.4,-26.66 619.97,-31.25"/>
</a>
</g>
<text text-anchor="middle" x="869" y="-75.5" font-family="Helvetica,sans-Serif" font-size="10.00" fill="grey"> +clock</text>
</g>
</g>
</svg>
