<?xml version="1.0" encoding="UTF-8" standalone="no"?>
<!DOCTYPE svg PUBLIC "-//W3C//DTD SVG 1.1//EN"
 "http://www.w3.org/Graphics/SVG/1.1/DTD/svg11.dtd">
<!-- Generated by graphviz version 2.43.0 (0)
 -->
<!-- Title: core/ir/SymbolIR.cpp Pages: 1 -->
<svg width="403pt" height="192pt"
 viewBox="0.00 0.00 403.00 192.00" xmlns="http://www.w3.org/2000/svg" xmlns:xlink="http://www.w3.org/1999/xlink">
<g id="graph0" class="graph" transform="scale(1 1) rotate(0) translate(4 188)">
<title>core/ir/SymbolIR.cpp</title>
<!-- Node1 -->
<g id="Node000001" class="node">
<title>Node1</title>
<g id="a_Node000001"><a xlink:title="符号 IR 辅助函数实现">
<polygon fill="#999999" stroke="#666666" points="226.5,-184 109.5,-184 109.5,-165 226.5,-165 226.5,-184"/>
<text text-anchor="middle" x="168" y="-172" font-family="Helvetica,sans-Serif" font-size="10.00">core/ir/SymbolIR.cpp</text>
</a>
</g>
</g>
<!-- Node2 -->
<g id="Node000002" class="node">
<title>Node2</title>
<g id="a_Node000002"><a xlink:href="SymbolIR_8h.html" target="_top" xlink:title="原理图符号的通用中间表示">
<polygon fill="white" stroke="#666666" points="204,-129 132,-129 132,-110 204,-110 204,-129"/>
<text text-anchor="middle" x="168" y="-117" font-family="Helvetica,sans-Serif" font-size="10.00">SymbolIR.h</text>
</a>
</g>
</g>
<!-- Node1&#45;&gt;Node2 -->
<g id="edge1_Node000001_Node000002" class="edge">
<title>Node1&#45;&gt;Node2</title>
<g id="a_edge1_Node000001_Node000002"><a xlink:title=" ">
<path fill="none" stroke="#63b8ff" d="M168,-164.75C168,-157.8 168,-147.85 168,-139.13"/>
<polygon fill="#63b8ff" stroke="#63b8ff" points="171.5,-139.09 168,-129.09 164.5,-139.09 171.5,-139.09"/>
</a>
</g>
</g>
<!-- Node3 -->
<g id="Node000003" class="node">
<title>Node3</title>
<g id="a_Node000003"><a xlink:href="IRTypes_8h.html" target="_top" xlink:title="EDA 无关的通用枚举和类型定义">
<polygon fill="white" stroke="#666666" points="91,-74 29,-74 29,-55 91,-55 91,-74"/>
<text text-anchor="middle" x="60" y="-62" font-family="Helvetica,sans-Serif" font-size="10.00">IRTypes.h</text>
</a>
</g>
</g>
<!-- Node2&#45;&gt;Node3 -->
<g id="edge2_Node000002_Node000003" class="edge">
<title>Node2&#45;&gt;Node3</title>
<g id="a_edge2_Node000002_Node000003"><a xlink:title=" ">
<path fill="none" stroke="#63b8ff" d="M150.65,-109.98C133.43,-101.54 106.8,-88.47 86.85,-78.68"/>
<polygon fill="#63b8ff" stroke="#63b8ff" points="88.19,-75.43 77.67,-74.17 85.1,-81.72 88.19,-75.43"/>
</a>
</g>
</g>
<!-- Node4 -->
<g id="Node000004" class="node">
<title>Node4</title>
<g id="a_Node000004"><a xlink:title=" ">
<polygon fill="#e0e0e0" stroke="#999999" points="50,-19 0,-19 0,0 50,0 50,-19"/>
<text text-anchor="middle" x="25" y="-7" font-family="Helvetica,sans-Serif" font-size="10.00">QColor</text>
</a>
</g>
</g>
<!-- Node2&#45;&gt;Node4 -->
<g id="edge5_Node000002_Node000004" class="edge">
<title>Node2&#45;&gt;Node4</title>
<g id="a_edge5_Node000002_Node000004"><a xlink:title=" ">
<path fill="none" stroke="#63b8ff" d="M131.98,-118.95C97.02,-117.22 45.62,-108.45 20,-74 10.52,-61.26 13.25,-42.83 17.48,-29.1"/>
<polygon fill="#63b8ff" stroke="#63b8ff" points="20.91,-29.9 20.98,-19.3 14.32,-27.54 20.91,-29.9"/>
</a>
</g>
</g>
<!-- Node5 -->
<g id="Node000005" class="node">
<title>Node5</title>
<g id="a_Node000005"><a xlink:title=" ">
<polygon fill="#e0e0e0" stroke="#999999" points="133.5,-19 80.5,-19 80.5,0 133.5,0 133.5,-19"/>
<text text-anchor="middle" x="107" y="-7" font-family="Helvetica,sans-Serif" font-size="10.00">QString</text>
</a>
</g>
</g>
<!-- Node2&#45;&gt;Node5 -->
<g id="edge10_Node000002_Node000005" class="edge">
<title>Node2&#45;&gt;Node5</title>
<g id="a_edge10_Node000002_Node000005"><a xlink:title=" ">
<path fill="none" stroke="#63b8ff" d="M161.93,-109.81C155.85,-100.97 146.36,-86.79 139,-74 130.35,-58.97 121.56,-41.32 115.39,-28.45"/>
<polygon fill="#63b8ff" stroke="#63b8ff" points="118.49,-26.83 111.05,-19.29 112.17,-29.82 118.49,-26.83"/>
</a>
</g>
</g>
<!-- Node6 -->
<g id="Node000006" class="node">
<title>Node6</title>
<g id="a_Node000006"><a xlink:title=" ">
<polygon fill="#e0e0e0" stroke="#999999" points="188.5,-74 147.5,-74 147.5,-55 188.5,-55 188.5,-74"/>
<text text-anchor="middle" x="168" y="-62" font-family="Helvetica,sans-Serif" font-size="10.00">QList</text>
</a>
</g>
</g>
<!-- Node2&#45;&gt;Node6 -->
<g id="edge6_Node000002_Node000006" class="edge">
<title>Node2&#45;&gt;Node6</title>
<g id="a_edge6_Node000002_Node000006"><a xlink:title=" ">
<path fill="none" stroke="#63b8ff" d="M168,-109.75C168,-102.8 168,-92.85 168,-84.13"/>
<polygon fill="#63b8ff" stroke="#63b8ff" points="171.5,-84.09 168,-74.09 164.5,-84.09 171.5,-84.09"/>
</a>
</g>
</g>
<!-- Node7 -->
<g id="Node000007" class="node">
<title>Node7</title>
<g id="a_Node000007"><a xlink:title=" ">
<polygon fill="#e0e0e0" stroke="#999999" points="251.5,-74 206.5,-74 206.5,-55 251.5,-55 251.5,-74"/>
<text text-anchor="middle" x="229" y="-62" font-family="Helvetica,sans-Serif" font-size="10.00">QMap</text>
</a>
</g>
</g>
<!-- Node2&#45;&gt;Node7 -->
<g id="edge7_Node000002_Node000007" class="edge">
<title>Node2&#45;&gt;Node7</title>
<g id="a_edge7_Node000002_Node000007"><a xlink:title=" ">
<path fill="none" stroke="#63b8ff" d="M177.8,-109.98C186.82,-102.15 200.41,-90.34 211.32,-80.86"/>
<polygon fill="#63b8ff" stroke="#63b8ff" points="213.77,-83.37 219.02,-74.17 209.18,-78.09 213.77,-83.37"/>
</a>
</g>
</g>
<!-- Node8 -->
<g id="Node000008" class="node">
<title>Node8</title>
<g id="a_Node000008"><a xlink:title=" ">
<polygon fill="#e0e0e0" stroke="#999999" points="324.5,-74 269.5,-74 269.5,-55 324.5,-55 324.5,-74"/>
<text text-anchor="middle" x="297" y="-62" font-family="Helvetica,sans-Serif" font-size="10.00">QPointF</text>
</a>
</g>
</g>
<!-- Node2&#45;&gt;Node8 -->
<g id="edge8_Node000002_Node000008" class="edge">
<title>Node2&#45;&gt;Node8</title>
<g id="a_edge8_Node000002_Node000008"><a xlink:title=" ">
<path fill="none" stroke="#63b8ff" d="M188.73,-109.98C209.76,-101.34 242.55,-87.87 266.54,-78.02"/>
<polygon fill="#63b8ff" stroke="#63b8ff" points="267.98,-81.21 275.9,-74.17 265.32,-74.73 267.98,-81.21"/>
</a>
</g>
</g>
<!-- Node9 -->
<g id="Node000009" class="node">
<title>Node9</title>
<g id="a_Node000009"><a xlink:title=" ">
<polygon fill="#e0e0e0" stroke="#999999" points="395,-74 343,-74 343,-55 395,-55 395,-74"/>
<text text-anchor="middle" x="369" y="-62" font-family="Helvetica,sans-Serif" font-size="10.00">QRectF</text>
</a>
</g>
</g>
<!-- Node2&#45;&gt;Node9 -->
<g id="edge9_Node000002_Node000009" class="edge">
<title>Node2&#45;&gt;Node9</title>
<g id="a_edge9_Node000002_Node000009"><a xlink:title=" ">
<path fill="none" stroke="#63b8ff" d="M200.29,-109.98C236.51,-100.44 295.09,-84.99 332.82,-75.04"/>
<polygon fill="#63b8ff" stroke="#63b8ff" points="334.09,-78.32 342.87,-72.39 332.31,-71.56 334.09,-78.32"/>
</a>
</g>
</g>
<!-- Node3&#45;&gt;Node4 -->
<g id="edge3_Node000003_Node000004" class="edge">
<title>Node3&#45;&gt;Node4</title>
<g id="a_edge3_Node000003_Node000004"><a xlink:title=" ">
<path fill="none" stroke="#63b8ff" d="M54.22,-54.75C49.38,-47.42 42.32,-36.73 36.36,-27.7"/>
<polygon fill="#63b8ff" stroke="#63b8ff" points="39.1,-25.5 30.67,-19.09 33.26,-29.36 39.1,-25.5"/>
</a>
</g>
</g>
<!-- Node3&#45;&gt;Node5 -->
<g id="edge4_Node000003_Node000005" class="edge">
<title>Node3&#45;&gt;Node5</title>
<g id="a_edge4_Node000003_Node000005"><a xlink:title=" ">
<path fill="none" stroke="#63b8ff" d="M67.76,-54.75C74.47,-47.18 84.34,-36.05 92.51,-26.84"/>
<polygon fill="#63b8ff" stroke="#63b8ff" points="95.37,-28.89 99.38,-19.09 90.13,-24.25 95.37,-28.89"/>
</a>
</g>
</g>
</g>
</svg>
