<?xml version="1.0" standalone="no"?><!DOCTYPE svg PUBLIC "-//W3C//DTD SVG 1.1//EN" "http://www.w3.org/Graphics/SVG/1.1/DTD/svg11.dtd"><svg t="1759243506312" class="icon" viewBox="0 0 1024 1024" version="1.1" xmlns="http://www.w3.org/2000/svg" p-id="1080" xmlns:xlink="http://www.w3.org/1999/xlink" width="200" height="200"><path d="M79.906425 102.356528C37.266061 102.356528 1.973052 137.62686 1.973052 180.282342V673.054078c0 42.655482 35.28545 77.933373 77.933373 77.933373h864.198715c42.647923 0 77.918255-35.277891 77.918255-77.933373V180.282342c0-42.655482-35.270332-77.925814-77.918255-77.925814z m0 60.003406h864.198715c10.446549 0 17.914849 7.4683 17.914849 17.914849v492.786854c0 10.454108-7.4683 17.937526-17.914849 17.937526H79.898866c-10.446549 0-17.937526-7.483418-17.937526-17.937526V180.282342c0-10.454108 7.483418-17.922408 17.937526-17.922408z" fill="#00496E" p-id="1081"></path><path d="M628.380491 691.014281a30.001703 30.001703 0 0 0-21.452465 8.178847s-64.115506 61.439618-73.193875 168.618792a30.001703 30.001703 0 0 0 27.35605 32.428145 30.001703 30.001703 0 0 0 32.420586-27.363609c7.302002-86.195369 54.621392-130.090529 54.621392-130.090529a30.001703 30.001703 0 0 0 1.194324-42.398476 30.001703 30.001703 0 0 0-20.946012-9.37317zM395.631074 691.014281a30.001703 30.001703 0 0 0-20.961129 9.37317 30.001703 30.001703 0 0 0 1.194323 42.406035s47.31939 43.887601 54.621392 130.08297a30.001703 30.001703 0 0 0 32.428145 27.363609 30.001703 30.001703 0 0 0 27.35605-32.428145c-9.085928-107.179175-73.186316-168.618793-73.186316-168.618792a30.001703 30.001703 0 0 0-21.452465-8.178847z" fill="#00496E" p-id="1082"></path><path d="M351.395759 861.651329a30.001703 30.001703 0 0 0-29.994144 30.001703 30.001703 30.001703 0 0 0 29.994144 30.001703H672.600688a30.001703 30.001703 0 0 0 29.994144-30.001703 30.001703 30.001703 0 0 0-29.994144-30.001703z" fill="#00496E" p-id="1083"></path><path d="M290.235825 244.881625c-29.019032 0-53.170063 24.173708-53.170063 53.185181 0 29.011473 24.151031 53.177622 53.170063 53.177622 29.011473 0 53.177622-24.166149 53.177621-53.177622s-24.166149-53.185181-53.177621-53.185181z m0 46.359397c3.409113 0 6.833343 3.409113 6.833343 6.825784 0 3.409113-3.424231 6.818225-6.833343 6.818225-3.416672 0-6.825784-3.401554-6.825785-6.818225s3.401554-6.825784 6.825785-6.825784zM455.362356 430.152913c-29.011473 0-53.177622 24.166149-53.177622 53.177621 0 29.019032 24.166149 53.185181 53.177622 53.185181s53.177622-24.166149 53.177621-53.185181c0-29.011473-24.166149-53.177622-53.177621-53.177621z m0 46.359396c3.416672 0 6.825784 3.401554 6.825784 6.818225s-3.409113 6.825784-6.825784 6.825785c-3.409113 0-6.818225-3.401554-6.818226-6.825785 0-3.409113 3.401554-6.818225 6.818226-6.818225zM189.60275 456.533851c-45.013893 0-82.143741 37.137407-82.14374 82.151299 0 45.006334 37.129848 82.143741 82.14374 82.143741 45.013893 0 82.128623-37.137407 82.128623-82.143741 0-45.013893-37.11473-82.1513-82.128623-82.151299z m0 60.003406c12.585748 0 22.132776 9.562145 22.132776 22.147893 0 12.585748-9.547027 22.147894-22.132776 22.147894s-22.147894-9.562145-22.147893-22.147894c0-12.585748 9.562145-22.147894 22.147893-22.147893z" fill="#FD6601" p-id="1084"></path><path d="M309.881687 359.483746a30.001703 30.001703 0 0 0-20.787273 36.978668l11.542606 41.204153a30.009262 30.009262 0 0 0 17.952644 19.857514l39.556289 15.458171a30.001703 30.001703 0 0 0 38.853302-17.022886 30.001703 30.001703 0 0 0-17.007769-38.853301l-25.609919-10.023245-7.513654-26.796683a30.001703 30.001703 0 0 0-36.986226-20.802391z" fill="#00496E" p-id="1085"></path><path d="M331.749897 399.667433a30.001703 30.001703 0 0 0-21.807738 7.181058l-40.765731 35.104033a30.001703 30.001703 0 0 0-3.159665 42.307768 30.001703 30.001703 0 0 0 42.315327 3.159666l40.76573-35.104034a30.001703 30.001703 0 0 0 3.159666-42.315327 30.001703 30.001703 0 0 0-20.507589-10.333164z" fill="#00496E" p-id="1086"></path><path d="M649.696894 313.9634a30.001703 30.001703 0 0 0-29.994144 30.001703 30.001703 30.001703 0 0 0 29.994144 30.001703h181.091156a30.001703 30.001703 0 0 0 30.001703-30.009262 30.001703 30.001703 0 0 0-30.001703-29.994144z" fill="#00496E" p-id="1087"></path><path d="M649.704453 343.965103h181.076038" fill="#00496E" p-id="1088"></path><path d="M649.696894 405.737317a30.001703 30.001703 0 0 0-29.994144 30.001703 30.001703 30.001703 0 0 0 29.994144 29.994144h181.091156a30.001703 30.001703 0 0 0 30.001703-29.994144 30.001703 30.001703 0 0 0-30.001703-30.009262z" fill="#00496E" p-id="1089"></path><path d="M649.704453 435.731461h181.076038" fill="#00496E" p-id="1090"></path><path d="M649.696894 497.503674a30.001703 30.001703 0 0 0-29.994144 30.009262 30.001703 30.001703 0 0 0 29.994144 29.994144h61.076785a30.001703 30.001703 0 0 0 30.016821-30.001703 30.001703 30.001703 0 0 0-30.009262-30.001703z" fill="#00496E" p-id="1091"></path><path d="M649.704453 527.497818h61.076785" fill="#00496E" p-id="1092"></path></svg>